<svg width="570" height="520" viewBox="0 0 57 52" fill="none" xmlns="http://www.w3.org/2000/svg">
    <path d="M29.1866 20.5438C29.1773 20.512 29.1637 20.4813 29.1438 20.4523L29.1114 20.4048C29.0844 20.3758 29.0591 20.3442 29.0254 20.3225C28.999 20.3056 28.9755 20.2951 28.9455 20.2856C28.9174 20.276 28.8898 20.2658 28.8622 20.2544C28.7957 20.2271 28.7508 20.1918 28.6775 20.1852C28.5969 20.1778 28.5154 20.1772 28.4342 20.1772C28.3173 20.1772 28.2036 20.1714 28.0929 20.215L28.0294 20.2405C27.971 20.2642 27.8931 20.2688 27.8338 20.3028C27.7703 20.3392 27.7117 20.3828 27.6463 20.4175C27.6208 20.4317 27.5955 20.4436 27.5731 20.4626C27.5592 20.4742 27.5451 20.4857 27.5314 20.4975C27.5038 20.5221 27.4774 20.5443 27.4542 20.5732C27.44 20.5909 27.4257 20.6082 27.4117 20.626L27.3753 20.688C27.3753 20.688 27.3475 20.7385 27.3459 20.738L27.3424 20.7475L27.3345 20.7619L27.3225 20.8043L27.2865 20.9058L27.2437 21.0637C27.2301 21.1141 27.224 21.1681 27.215 21.2197C27.2012 21.2995 27.1846 21.3836 27.2008 21.465L27.2205 21.5637C27.2266 21.598 27.2323 21.6321 27.239 21.6666C27.2492 21.7197 27.2435 21.7615 27.2337 21.8137L27.2106 21.8992C27.1974 21.9878 27.1873 22.071 27.1849 22.1599C27.1849 22.1706 27.1842 22.1814 27.1842 22.1921C27.1828 22.2452 27.1893 22.2982 27.1951 22.3512C27.2009 22.4016 27.2015 22.4541 27.2225 22.5012C27.2235 22.5032 27.2274 22.5115 27.2329 22.5236C27.2454 22.5501 27.2638 22.59 27.2648 22.5895L27.2734 22.6071C27.3194 22.6699 27.3378 22.7146 27.4056 22.7582C27.473 22.8016 27.5273 22.8545 27.6028 22.8844C27.7045 22.9246 27.8317 22.9323 27.9375 22.9057C27.9595 22.9001 27.982 22.8928 28.0044 22.8887C28.0498 22.8805 28.0942 22.8749 28.1384 22.8614C28.1635 22.854 28.1884 22.8463 28.2135 22.8389L28.2924 22.8158C28.3314 22.8015 28.37 22.7867 28.4095 22.7742C28.4643 22.7564 28.5119 22.7263 28.5601 22.6918L28.5813 22.6777C28.5998 22.6689 28.6192 22.6587 28.639 22.6469L28.6429 22.6443C28.6659 22.6345 28.6902 22.6229 28.7155 22.6076C28.7785 22.5696 28.8264 22.5269 28.8452 22.4958C28.8529 22.4878 28.8611 22.481 28.8685 22.4725C28.9103 22.4402 28.9503 22.4004 28.9855 22.353C29.1215 22.1705 29.1888 21.959 29.1974 21.7329C29.2035 21.57 29.2051 21.4066 29.2051 21.2436C29.2051 21.1311 29.2039 21.0087 29.2014 20.8923C29.1989 20.7785 29.2189 20.6544 29.1866 20.5438ZM29.9325 16.5061L29.9374 16.4729C29.9743 16.3296 29.9964 16.1485 29.9964 15.9506C29.9964 15.9307 29.9915 15.9108 29.9925 15.8907C29.9931 15.8788 29.9967 15.8677 29.9974 15.8559C29.9996 15.8222 29.9963 15.7876 29.9933 15.7541C29.991 15.7276 29.988 15.7012 29.9847 15.6748C29.9752 15.6009 29.9634 15.5372 29.9535 15.5029C29.9506 15.4884 29.948 15.4733 29.9447 15.4596L29.9258 15.3491L29.93 15.2607V15.1828C29.9406 15.0764 29.947 14.9579 29.947 14.8312C29.947 14.7418 29.9438 14.656 29.9384 14.5757C29.9412 14.4736 29.9427 14.3636 29.9427 14.2481C29.9427 14.0114 29.9364 13.796 29.9261 13.6321C29.9264 13.6234 29.9269 13.6148 29.9269 13.6059C29.9269 13.5862 29.9262 13.5671 29.9252 13.5487C29.9294 13.4575 29.9146 13.3122 29.882 13.1509C29.8545 13.0148 29.8195 12.8948 29.7856 12.8109L29.7417 12.612C29.7217 12.4782 29.6955 12.3232 29.6647 12.1574C29.5934 11.774 29.5188 11.4507 29.4754 11.3265L29.4441 11.1774L29.4156 10.9321L29.3818 10.6752L29.3691 10.4941L29.3649 10.2544L29.3628 10.2147C29.3668 10.1608 29.3691 10.1053 29.3691 10.048C29.3691 9.88657 29.3519 9.73719 29.3229 9.61403C29.3161 9.55268 29.3066 9.49712 29.2955 9.44805C29.2841 9.33095 29.2664 9.17796 29.244 9.01009C29.2381 8.96535 29.2321 8.92162 29.226 8.87955L29.2243 8.86923C29.2145 8.80068 29.2048 8.73654 29.1955 8.67778L29.1845 8.55583C29.1734 8.46389 29.1455 8.38008 29.1304 8.29026L29.0973 8.09109L29.0888 7.88349L29.0721 7.69682L29.0389 7.50172L29.0222 7.33578L29.0057 7.20301C28.9864 7.12636 28.9663 7.05047 28.9433 6.97477L28.9058 6.86682C28.8709 6.76215 28.8538 6.65406 28.7881 6.56227C28.7636 6.52796 28.735 6.49628 28.7025 6.46924C28.6691 6.44129 28.6329 6.4254 28.6027 6.39293C28.5695 6.35753 28.5318 6.32649 28.4903 6.30107C28.4103 6.25184 28.3252 6.2271 28.2477 6.22363C28.2064 6.21346 28.1625 6.20699 28.1161 6.20699C28.0024 6.20699 27.9007 6.24017 27.8289 6.29267C27.7453 6.33749 27.6758 6.46416 27.6488 6.62626C27.6204 6.72249 27.6044 6.88614 27.6085 7.07333L27.6006 7.1241L27.5921 7.29853L27.5631 7.45619L27.5619 7.46602C27.515 7.60202 27.4841 7.83185 27.4841 8.09312C27.4841 8.14318 27.4854 8.1921 27.4874 8.23941C27.482 8.27971 27.4825 8.34675 27.4881 8.42875L27.4902 8.60893L27.5012 8.78173L27.5122 8.99292V9.4592L27.504 9.64834L27.4929 9.90612L27.4893 9.98152C27.4867 10.0045 27.4851 10.0349 27.4851 10.0686C27.4851 10.1028 27.4868 10.1329 27.4896 10.1561C27.4902 10.1887 27.4922 10.2174 27.4952 10.2377L27.4957 10.2736L27.5077 10.4536V10.545C27.5077 10.7374 27.5087 10.9118 27.5103 11.0433L27.4962 11.2177L27.4671 11.4723L27.448 11.685C27.42 11.8531 27.3754 12.0135 27.359 12.1837L27.3334 12.425L27.3144 12.641L27.2673 13.1048C27.2418 13.2257 27.2219 13.3649 27.2109 13.514C27.2029 13.6205 27.2003 13.7222 27.2021 13.817L27.1967 13.9082L27.1871 14.0448L27.1903 14.1337C27.1948 14.257 27.2064 14.3745 27.1857 14.4981C27.1684 14.5996 27.1586 14.6987 27.1586 14.8025C27.1586 14.8715 27.1615 14.9351 27.1664 14.9876L27.1793 15.2904L27.1876 15.3752V15.5201C27.1876 15.767 27.1898 15.9845 27.1931 16.1141L27.1914 16.1158C27.1941 16.1792 27.1929 16.2442 27.2015 16.3071C27.2061 16.3401 27.2154 16.3759 27.2154 16.4091C27.2252 16.4808 27.245 16.5443 27.2691 16.6122L27.2949 16.6822L27.3209 16.7894L27.3431 16.889L27.3689 16.9961L27.3893 17.079L27.4004 17.1621L27.4073 17.2497C27.4073 17.2829 27.4066 17.3171 27.4066 17.352C27.4066 17.4783 27.4088 17.5947 27.4125 17.6889C27.4125 17.6996 27.4118 17.7101 27.4118 17.7209C27.4118 17.9252 27.4356 18.11 27.474 18.2433C27.5051 18.3764 27.5701 18.4875 27.6522 18.5629C27.6626 18.5774 27.675 18.5937 27.6903 18.6117C27.6985 18.6212 27.7061 18.6299 27.7137 18.6382L27.7311 18.6604C27.7976 18.7685 27.8918 18.8479 27.997 18.8862L28.0615 18.9195C28.1073 18.9532 28.1927 18.9762 28.2919 18.9762C28.3945 18.9762 28.4825 18.9516 28.5272 18.9162L28.5904 18.8747L28.6772 18.7935C28.6772 18.7935 28.8602 18.6144 28.864 18.6108C28.9191 18.5569 28.9763 18.507 29.0348 18.4574C29.0529 18.4473 29.0846 18.4222 29.1258 18.386C29.134 18.3804 29.1415 18.3743 29.1505 18.3691C29.1505 18.3691 29.1968 18.3229 29.1961 18.3216C29.2543 18.2666 29.3226 18.1986 29.3942 18.1238C29.5459 17.9653 29.6658 17.8244 29.7029 17.764C29.762 17.6989 29.8183 17.5881 29.8528 17.4557C29.8548 17.4482 29.8559 17.4409 29.8576 17.4332C29.8588 17.4279 29.86 17.423 29.8611 17.4168C29.8809 17.3262 29.8868 17.2422 29.8802 17.1727C29.8802 17.1579 29.881 17.1436 29.881 17.1283V17.1033C29.8872 17.0346 29.891 16.9663 29.8877 16.8953L29.9038 16.6973L29.9325 16.5061ZM49.7538 35.7333L49.6744 35.6871C49.63 35.68 49.6068 35.6678 49.5638 35.6873C49.5195 35.7073 49.4753 35.7294 49.4266 35.7354C49.3928 35.7395 49.3575 35.7399 49.3242 35.7466L49.1259 35.7861C49.0354 35.8087 48.9451 35.8313 48.8548 35.8539C48.7679 35.8755 48.7007 35.9199 48.6235 35.9643L48.3392 36.0369L48.1805 36.0567L47.8169 36.1358L47.5392 36.1688C47.4549 36.1791 47.3696 36.1823 47.2858 36.1972C47.2033 36.2118 47.1213 36.2317 47.0393 36.2494C47.0209 36.2534 47.0024 36.2573 46.9839 36.2613L46.3892 36.2944L45.4439 36.3141C45.3997 36.3107 45.3529 36.307 45.3079 36.3036C45.2204 36.2969 45.1086 36.3141 45.0412 36.2454C44.9731 36.1759 44.9298 36.0074 44.9744 35.9182L45.0471 35.7467C45.0736 35.7203 45.0889 35.6491 45.1042 35.6141C45.1398 35.5309 45.1656 35.4672 45.2216 35.3947C45.2793 35.32 45.3416 35.2439 45.3727 35.1536C45.3939 35.0921 45.4048 35.0265 45.4257 34.9648L45.4717 34.8229L45.5052 34.6848C45.535 34.5619 45.5844 34.4672 45.6558 34.3634L45.7648 34.2046L45.8568 34.05L45.9403 33.9329C45.9929 33.8725 46.0266 33.832 46.1037 33.8035C46.2912 33.7343 46.5024 33.7571 46.7006 33.7546C46.722 33.7543 46.7437 33.7531 46.765 33.7533L47.1959 33.7575L47.5015 33.791L47.6857 33.8285C47.7644 33.837 47.8415 33.8383 47.9183 33.8598C47.9629 33.8724 48.0089 33.8906 48.054 33.8996L48.2046 33.9289C48.2265 33.9247 48.2526 33.9263 48.2717 33.9137C48.2868 33.9038 48.2981 33.8855 48.3098 33.8722C48.3544 33.8206 48.3384 33.8013 48.3043 33.7501L48.1874 33.6391L48.015 33.4725L47.8593 33.3671L47.6368 33.2172L47.3811 33.0451L47.1418 32.8952L46.8304 32.7398L46.6859 32.6289L46.5858 32.5234L46.5581 32.4179L46.5636 32.2847L46.6025 32.0627L46.6803 31.7573L46.7525 31.3799L46.8194 31.0856L46.9249 30.7859L46.9639 30.5584L47.0529 30.2918L47.1086 29.9644L47.1641 29.6812L47.2253 29.3981C47.232 29.3332 47.2553 29.273 47.2701 29.2099C47.2882 29.132 47.3035 29.0351 47.3116 28.9557C47.3183 28.8905 47.3222 28.8253 47.3247 28.7598C47.3298 28.6304 47.3285 28.5008 47.3309 28.3712L47.3477 28.1435L47.3309 27.9384V27.3885C47.3331 27.113 47.3184 26.8507 47.2754 26.5783L47.2809 26.3174C47.2716 26.1663 47.2587 26.0266 47.2253 25.8788L47.2087 25.6679V25.5624C47.2271 25.4549 47.2338 25.3663 47.2253 25.2572L47.2031 25.0184L47.153 24.6907L47.0975 24.4466L47.0473 24.2968L46.9973 24.1357L46.9418 23.9692L46.8304 23.7028C46.8304 23.7028 46.7808 23.5758 46.7804 23.5749C46.7679 23.5428 46.7296 23.5142 46.7134 23.481C46.7005 23.4548 46.6949 23.4291 46.6805 23.4039C46.657 23.363 46.6244 23.325 46.5968 23.2865L46.5023 23.1421C46.4041 22.992 46.2378 22.9021 46.0893 22.8108C45.9748 22.7403 45.8613 22.6646 45.7426 22.6011L45.4626 22.4852L45.1957 22.386L44.8684 22.2701L44.6789 22.1842C44.5785 22.1502 44.4831 22.1108 44.3783 22.0915C44.3237 22.0815 44.257 22.0795 44.2054 22.0595L44.0375 21.9951L43.7757 21.9391C43.6656 21.8984 43.5041 21.862 43.3216 21.8404C43.2155 21.8279 43.1149 21.8219 43.0264 21.8216L42.8605 21.8003C42.7548 21.7678 42.6169 21.7395 42.4647 21.7215C42.2988 21.7018 42.1127 21.7282 41.9511 21.6859C41.9059 21.6735 41.8642 21.6522 41.8172 21.646C41.7712 21.6401 41.7254 21.6341 41.6791 21.6281C41.6675 21.6266 41.6559 21.6249 41.6445 21.6236L41.3744 21.6175C41.3361 21.6183 41.2978 21.6188 41.2598 21.62C41.21 21.6214 41.1598 21.6275 41.1101 21.6218C41.0612 21.6163 41.0151 21.598 40.9664 21.5937L40.6182 21.5637L40.3842 21.5756C40.2997 21.587 40.2165 21.6055 40.1309 21.6065C40.078 21.6071 40.0252 21.6088 39.9725 21.6103C39.8814 21.6128 39.7904 21.6331 39.7003 21.6473C39.6445 21.6561 39.5953 21.6845 39.5404 21.6945C39.4953 21.7026 39.4505 21.7125 39.4055 21.7214L39.241 21.7353C39.1097 21.746 38.9999 21.771 38.8761 21.8145C38.8181 21.8348 38.7572 21.8358 38.6979 21.8502C38.6617 21.8592 38.6261 21.8692 38.5902 21.8785C38.4879 21.9054 38.3868 21.9388 38.2817 21.9535C38.1809 21.9677 38.0795 21.973 37.9848 22.0147L37.8028 22.0951L37.6314 22.1546L37.4879 22.1963L37.25 22.2731L37.061 22.3465L36.8721 22.4094L36.5746 22.5353L36.305 22.654L36.1441 22.7552L35.9831 22.8602L35.8502 22.93C35.7704 22.9772 35.6889 23.0212 35.6092 23.069C35.5258 23.1191 35.4265 23.1572 35.3482 23.214L35.2281 23.2979L35.1321 23.3878C35.0902 23.435 35.0487 23.4825 35.0067 23.5298C34.9379 23.6075 34.8616 23.6722 34.784 23.7414L34.5319 23.987C34.495 24.0352 34.4568 24.082 34.4186 24.1291C34.3134 24.2249 34.1754 24.3963 34.0429 24.6047C34.0141 24.6498 33.9874 24.6942 33.9622 24.7379L33.8758 24.8512L33.7798 24.9819L33.7012 25.0865L33.6227 25.2042L33.5223 25.2998L33.4175 25.4569L33.4164 25.4587C33.4145 25.4616 33.4126 25.4639 33.4109 25.4664C33.3945 25.4899 33.3799 25.5133 33.3655 25.5363C33.3488 25.5577 33.3321 25.5802 33.316 25.6033C33.262 25.681 33.2134 25.7641 33.1788 25.8524C33.1652 25.8871 33.1605 25.931 33.1476 25.9684C33.133 26.0109 33.1021 26.0392 33.0828 26.0787C33.0558 26.1336 33.0445 26.1872 33.0117 26.241L32.9767 26.3109L32.975 26.3351C32.8998 26.4822 32.8748 26.6061 32.9172 26.6487C32.9283 26.6763 32.9455 26.7002 32.9694 26.7177C32.9766 26.7231 32.9847 26.7264 32.9926 26.7303C32.9969 26.7341 33.0001 26.7387 33.0048 26.7421C33.0106 26.7464 33.0173 26.749 33.0246 26.7531C33.0851 26.7974 33.1708 26.7902 33.2488 26.7441C33.2825 26.7241 33.3187 26.7111 33.3514 26.6881C33.4645 26.6084 33.5854 26.5509 33.6817 26.4475C33.7039 26.4236 33.7232 26.3973 33.7486 26.3766C33.7763 26.3542 33.8058 26.3341 33.8326 26.3105C33.8908 26.2599 33.9515 26.2128 34.012 26.1652C34.0741 26.1047 34.1361 26.0439 34.1979 25.9833C34.2652 25.9173 34.3314 25.8503 34.398 25.7834C34.4585 25.7222 34.5302 25.6702 34.5966 25.6155L34.7412 25.5031L34.874 25.4018L35.0147 25.2964L35.0965 25.2263L35.2176 25.1483L35.3035 25.094C35.3255 25.0798 35.3534 25.0711 35.3766 25.0563C35.4018 25.0405 35.4225 25.0206 35.4441 25.0003C35.5048 24.9434 35.5805 24.9072 35.6519 24.866C35.719 24.8271 35.7871 24.7898 35.8548 24.752C35.8623 24.7476 35.8697 24.7436 35.8773 24.7392C35.909 24.7216 35.9417 24.7057 35.9763 24.6949C36.0609 24.6688 36.128 24.606 36.2136 24.5815C36.2685 24.5657 36.3262 24.5566 36.382 24.5444L36.5762 24.4732L36.8009 24.3949L37.019 24.3405L37.3358 24.2861L37.4686 24.2726L37.6695 24.2114L37.8637 24.157L38.1192 24.1196L38.3509 24.1127L38.5824 24.0923L38.8959 24.0582L39.4918 24.0346C39.6625 24.0213 39.8343 23.993 40.006 23.993C40.1107 23.993 40.2219 23.9796 40.3241 24.0036C40.4598 24.0356 40.5815 24.0462 40.7202 24.0462L40.831 24.0748L40.9911 24.1281L41.102 24.1527L41.3111 24.2142L41.5412 24.2756L41.5442 24.2766C41.6182 24.3032 41.6921 24.3296 41.7656 24.3574C41.8713 24.3976 41.9661 24.4592 42.0633 24.5162C42.0736 24.5223 42.084 24.5283 42.0944 24.5345L42.1893 24.5983C42.2532 24.6413 42.3163 24.6783 42.3707 24.7335C42.4137 24.7771 42.4584 24.8193 42.5023 24.8618C42.5138 24.8731 42.5251 24.8844 42.5365 24.8956C42.5958 24.9452 42.6493 24.9965 42.7021 25.0525C42.7197 25.0749 42.7375 25.0972 42.7552 25.1194L42.7639 25.1296C42.8043 25.1798 42.8448 25.2299 42.8873 25.2787C42.9064 25.3003 42.9333 25.3172 42.9551 25.3366C43.0139 25.3891 43.0546 25.4599 43.1104 25.516L43.1492 25.5787L43.1832 25.6563L43.1929 25.7289L43.2171 25.8593L43.2461 25.9512C43.2685 26.0666 43.2772 26.1729 43.28 26.2898L43.2849 26.614C43.2849 26.614 43.2944 27.0527 43.2945 27.0591C43.2968 27.164 43.3381 27.2682 43.3381 27.3723V27.8302L43.3638 28.1392L43.3897 28.3502C43.424 28.5158 43.4197 28.6708 43.4207 28.8394C43.4212 28.9472 43.438 29.0718 43.4205 29.1787L43.3741 29.4618L43.2711 29.8684L43.2297 30.033L43.1833 30.3058C43.1709 30.4499 43.1594 30.5905 43.1223 30.7313L43.0793 30.8944C43.0553 30.9685 43.0335 31.0421 43.0147 31.1176L42.9631 31.2292L42.9073 31.4223C42.8854 31.507 42.8693 31.5886 42.8601 31.6754C42.8197 31.7858 42.781 31.8789 42.7139 31.9759L42.6107 32.1218L42.486 32.2333L42.3829 32.2977C42.3514 32.3292 42.3268 32.3558 42.286 32.3746C42.2469 32.3926 42.2083 32.4115 42.1725 32.4357C42.1468 32.4531 42.1157 32.485 42.0862 32.4951L41.9617 32.5379L41.8368 32.5594L41.7336 32.5422L41.5747 32.4693L41.4716 32.3749L41.3684 32.2633L41.2566 32.1045L41.1578 31.9372L41.0976 31.8084L41.033 31.6455L40.9687 31.5339L40.9085 31.345L40.8353 31.1948L40.788 31.0833L40.7193 30.9631L40.6462 30.8645L40.5817 30.8215C40.5479 30.8102 40.5317 30.8037 40.4989 30.8159C40.4613 30.83 40.4496 30.8323 40.4306 30.8685C40.4197 30.8894 40.4051 30.9112 40.3968 30.9332L40.3539 31.0489L40.2893 31.2464L40.2721 31.3321L40.199 31.4954L40.1517 31.6755L40.1089 31.8557L40.0915 32.1261L40.1089 32.3836L40.1481 32.5992C40.1617 32.7142 40.1912 32.845 40.1139 32.9478L39.9942 33.0858C39.9247 33.1554 39.8581 33.2385 39.7768 33.2934C39.7297 33.3253 39.6783 33.3525 39.6291 33.3812C39.5175 33.4369 39.4262 33.5021 39.3011 33.524C39.2274 33.537 39.1469 33.5422 39.0752 33.5635L38.6536 33.6892L38.4017 33.7646L38.1815 33.8273C38.1815 33.8273 37.9177 33.838 37.9115 33.8383C37.6637 33.8484 37.5476 33.6054 37.4264 33.4308L37.3119 33.1918L37.2182 32.9733L37.1661 32.6304L37.2078 32.2561L37.3223 31.7986L37.5825 31.1957L37.8533 30.7798L38.1554 30.3847L38.4678 30.0939L38.6241 29.8754C38.6631 29.8205 38.7351 29.7328 38.6975 29.6612C38.6743 29.6172 38.6343 29.6167 38.5913 29.6159C38.5341 29.6148 38.4773 29.6073 38.4208 29.6226C38.3898 29.631 38.3592 29.6426 38.3282 29.6517C38.2504 29.6747 38.1733 29.7 38.0957 29.7233C38.0783 29.7286 38.0572 29.7319 38.0408 29.7401L37.6242 29.948L37.1139 30.2392L36.5725 30.655L36.1246 31.0604L35.6872 31.3308C35.4865 31.4548 35.2031 31.6732 34.9477 31.601L34.5416 31.4867L33.9792 31.2891L33.3543 30.9046C33.2584 30.8528 33.1626 30.801 33.0666 30.7494C32.9773 30.7012 32.8853 30.6578 32.8065 30.5932C32.7628 30.5579 32.7225 30.5186 32.6832 30.4785C32.6132 30.4065 32.5406 30.3361 32.4724 30.2627C32.4331 30.2203 32.3972 30.1739 32.3749 30.1198L32.3255 29.9988C32.3026 29.9412 32.2728 29.8828 32.255 29.8236C32.2394 29.7716 32.2387 29.713 32.1894 29.678C32.1382 29.6297 32.0937 29.6624 32.0496 29.6997C31.9681 29.7687 31.8722 29.8255 31.7862 29.8898C31.57 30.0336 31.3409 30.1807 31.0727 30.2134L30.6753 30.262L30.0753 30.2863L29.5483 30.246L29.0191 30.1813L28.6621 30.0909C28.47 30.0428 28.2821 29.9988 28.1078 29.8994L27.8308 29.7397L27.6656 29.5802L27.5421 29.44L27.3939 29.1334C27.3416 29.0179 27.3035 28.9043 27.2295 28.8C27.1867 28.7397 27.1397 28.6804 27.1009 28.6175L26.9676 28.3993C26.8931 28.2945 26.8353 28.1677 26.7255 28.0945C26.7054 28.0811 26.6897 28.0597 26.6641 28.0706C26.6323 28.0844 26.6082 28.0916 26.5874 28.1205C26.5447 28.18 26.5191 28.2482 26.492 28.3171C26.4888 28.3249 26.4854 28.3327 26.4827 28.3408L26.4028 28.5004C26.3441 28.6342 26.2893 28.7622 26.2536 28.9047L26.1365 29.2291L25.9713 29.6332C25.9287 29.7051 25.8923 29.7887 25.8398 29.8538C25.7889 29.9167 25.7199 29.9713 25.6618 30.0279C25.5535 30.1338 25.4611 30.2392 25.3324 30.3208C25.2564 30.3691 25.1812 30.4185 25.1052 30.4667L24.7476 30.6899L24.4066 30.8683L24.0323 31.0636L23.6133 31.2813L23.2333 31.4708L23.0957 31.5297C23.0715 31.5353 23.0377 31.5452 22.9977 31.5579C22.9174 31.5912 22.8273 31.6265 22.7314 31.6623C22.642 31.6956 22.5565 31.7258 22.4785 31.752C22.4734 31.7541 22.468 31.7563 22.4633 31.7584L22.2384 31.842L21.9188 31.968L21.5741 32.0939L21.2714 32.2282L21.0024 32.3205C20.9821 32.3237 20.9616 32.3269 20.9413 32.33C20.8671 32.3418 20.839 32.3467 20.7711 32.3147C20.7031 32.2829 20.6574 32.2384 20.6093 32.1826L20.5613 32.0463L20.5462 31.8192C20.5504 31.7315 20.5588 31.647 20.5521 31.5593C20.5483 31.5114 20.5455 31.4633 20.541 31.4154L20.5208 31.2691C20.5002 31.1979 20.4884 31.0787 20.4146 31.0408C20.3809 31.0236 20.3504 31.0185 20.3136 31.0294L20.2721 31.0515C20.1885 31.0961 20.1046 31.1426 20.0365 31.2094C19.936 31.3086 19.8355 31.4076 19.7349 31.5067C19.6843 31.5566 19.6385 31.6067 19.5939 31.662C19.5674 31.6951 19.5423 31.7338 19.512 31.7636L19.3478 31.9251C19.2503 31.9988 19.1694 32.0992 19.0368 32.0992L18.9054 32.1118L18.7713 32.1018L18.6375 32.084L18.5059 32.0665C18.4356 32.0439 18.3705 32.0221 18.2977 32.0096C18.2281 31.9978 18.1607 31.9828 18.0988 31.9477L17.9876 31.8796L17.7904 31.7055C17.7463 31.6504 17.6981 31.5987 17.6658 31.5357C17.6318 31.4698 17.5979 31.4039 17.5645 31.3376C17.5522 31.3133 17.53 31.2953 17.5198 31.2699C17.511 31.248 17.5037 31.2249 17.4958 31.203C17.4837 31.1692 17.472 31.1355 17.4592 31.1024L17.3831 30.9077C17.3371 30.7901 17.29 30.6732 17.2387 30.5579C17.1864 30.4398 17.1458 30.3156 17.0789 30.2045C17.0134 30.0958 16.9216 30.0063 16.8536 29.8993L16.7516 29.7387C16.6809 29.6272 16.5971 29.5414 16.5103 29.4443L16.3763 29.2944L16.2154 29.139L16.151 29.0482L15.9151 28.8073L15.7864 28.6948L15.7381 28.652L15.6041 28.5398L15.4647 28.454C15.42 28.4145 15.3868 28.3785 15.3305 28.3563C15.2966 28.3431 15.2615 28.3304 15.2287 28.3149C15.1923 28.2976 15.1648 28.2734 15.1231 28.2725C15.0783 28.2716 15.0341 28.2824 14.998 28.3093C14.9463 28.348 14.9887 28.4631 14.998 28.5129L15.0839 28.7965L15.1751 29.0589C15.2057 29.1361 15.2271 29.2166 15.2667 29.29C15.2878 29.3289 15.3194 29.3666 15.3359 29.4069L15.6631 30.2045C15.7189 30.345 15.7632 30.4681 15.7864 30.6165L15.7918 30.8842L15.7864 31.0662C15.7444 31.1754 15.7013 31.2414 15.6256 31.3286L15.4754 31.4464L15.3037 31.5479L15.1108 31.6497L14.9733 31.7387L14.8042 31.8264L14.7219 31.8519L14.5403 31.8669L14.4195 31.8972L14.1774 31.9677L14.0464 31.9527L13.9505 31.9022L13.8044 31.8216L13.7035 31.716L13.6127 31.6053C13.6127 31.6053 13.5779 31.5379 13.5792 31.5373L13.4467 31.1283C13.4128 30.9591 13.3554 30.8075 13.3677 30.6324C13.3809 30.4441 13.3926 30.2534 13.3383 30.0698C13.3383 30.0698 13.242 29.7454 13.2418 29.7449C13.2112 29.642 13.2376 29.507 13.2108 29.3933C13.1934 29.3203 13.1656 29.2411 13.1574 29.1676L13.1093 28.7345V28.3617L13.1816 28.037V27.5195C13.1728 27.2409 13.1559 26.966 13.1214 26.6895C13.0809 26.4716 13.067 26.3299 13.0973 26.1122L13.1575 25.6792C13.1766 25.507 13.2115 25.3799 13.2916 25.2246C13.3939 25.0262 13.554 24.8467 13.6636 24.6448L13.7721 24.4523L14.0492 24.1636L14.3867 23.9471L14.5828 23.863L15.2168 23.7189C15.5109 23.6679 15.7842 23.6007 16.0704 23.5188C16.0704 23.5188 16.382 23.4371 16.4007 23.4323C16.7261 23.3463 17.0791 23.3456 17.412 23.2929C17.564 23.2717 17.7026 23.2487 17.8562 23.2557C17.943 23.2598 18.0309 23.2668 18.1177 23.2668C18.1177 23.2668 18.2092 23.2834 18.213 23.2841C18.3024 23.3009 18.41 23.2849 18.5032 23.2929C18.5617 23.298 18.625 23.3075 18.6821 23.3082C18.8116 23.3097 18.9408 23.2961 19.0704 23.2972C19.1921 23.2982 19.3083 23.3234 19.4286 23.3393C19.7028 23.3754 19.9797 23.3785 20.2557 23.3851C20.2908 23.3859 20.3268 23.3846 20.3617 23.388C20.5793 23.4072 20.7781 23.4208 20.9885 23.4803C21.159 23.5285 21.33 23.5757 21.5003 23.6245C21.5404 23.636 21.5816 23.6519 21.6228 23.6595C21.7981 23.6913 21.9544 23.7679 22.1141 23.8384L22.5721 23.9775L22.8045 24.0239L23.1364 24.1565L23.3421 24.1963C23.4655 24.2247 23.5507 24.2286 23.6742 24.2029C23.6972 24.2029 23.7351 24.0954 23.7336 24.075C23.7323 24.0584 23.7249 24.0426 23.7176 24.028C23.6964 23.9856 23.6653 23.9668 23.6298 23.9384C23.6082 23.921 23.5882 23.9016 23.568 23.8827C23.5571 23.8725 23.5464 23.862 23.5347 23.8529C23.4971 23.8236 23.4596 23.7947 23.4218 23.7656C23.4218 23.7656 22.8812 23.4146 22.871 23.4079C22.8212 23.3754 22.7392 23.3273 22.7046 23.2832C22.5552 23.1685 22.3986 23.0623 22.2456 22.9524C21.8735 22.7178 21.5014 22.4835 21.125 22.2556C21.0818 22.2296 21.0389 22.2034 20.9957 22.1775C20.7689 22.0721 20.5422 21.9663 20.3151 21.8613C20.0937 21.7586 19.8542 21.7012 19.6224 21.6256C19.3847 21.548 19.1481 21.4665 18.9145 21.3777C18.8687 21.3602 18.8258 21.3372 18.7775 21.3261C18.7263 21.3143 18.6749 21.3037 18.6237 21.2914C18.5164 21.2657 18.4088 21.2386 18.2992 21.2243C18.2377 21.2162 18.1755 21.2122 18.1135 21.2149L17.8999 21.1971L17.2116 21.171L16.7848 21.1188L16.5235 21.1275L16.2446 21.1797H15.8001L15.5474 21.1971L15.3383 21.2318L14.9986 21.2493C14.8484 21.2766 14.7049 21.3146 14.5516 21.3205C14.4692 21.3239 14.3835 21.318 14.3016 21.3275L13.7093 21.3971C13.2481 21.4546 12.7887 21.5368 12.3384 21.6561C12.2187 21.6879 12.117 21.7672 11.9969 21.7959C11.8597 21.8286 11.7339 21.8593 11.6 21.9091C11.5331 21.934 11.4708 21.9705 11.4031 21.9938C11.338 22.0162 11.2776 22.0405 11.2181 22.0761C11.1614 22.11 11.1037 22.1422 11.0465 22.1752C10.9364 22.2391 10.8377 22.3453 10.7448 22.4329C10.569 22.5987 10.468 22.7973 10.3467 23.006L10.0679 23.7712C10.015 23.9166 9.96848 24.0592 9.91003 24.2019C9.85449 24.3375 9.84219 24.4941 9.81434 24.637C9.78446 24.7902 9.75446 24.943 9.73284 25.0977C9.70847 25.2712 9.70515 25.4454 9.68526 25.6188C9.63323 26.0724 9.61742 26.5303 9.61772 26.9865C9.61772 27.062 9.61814 27.1374 9.61942 27.213C9.62101 27.3058 9.60172 27.3993 9.60188 27.4929C9.60188 27.5789 9.60218 27.6649 9.60218 27.7507C9.60203 27.8703 9.60218 27.9898 9.60218 28.1092L9.66236 28.9633L9.69847 29.5046C9.69602 29.5756 9.69368 29.6466 9.69153 29.7177C9.68994 29.7707 9.68832 29.825 9.69979 29.8771C9.71111 29.9277 9.74182 29.9735 9.75039 30.0251C9.75476 30.0509 9.75865 30.077 9.76273 30.1028C9.77431 30.1746 9.78695 30.2461 9.79838 30.3178C9.80114 30.3355 9.80404 30.3531 9.8071 30.3707C9.83683 30.5489 9.90973 30.7223 9.95052 30.8985C9.97108 30.9877 9.9873 31.0778 9.99542 31.1688C10.0064 31.2932 10.0114 31.4103 10.0373 31.5328C10.0526 31.6049 10.074 31.6756 10.0873 31.7482C10.0995 31.8146 10.0979 31.8817 10.1072 31.9478C10.1204 32.0429 10.1702 32.14 10.1458 32.2363C10.1111 32.3731 10.0058 32.5682 9.84547 32.5856C9.77691 32.5928 9.70194 32.5812 9.63278 32.579L9.30078 32.4764L8.94512 32.3029L8.65266 32.1531L8.42329 32.0189L8.31628 31.963C8.26308 31.9138 8.19547 31.8994 8.15664 31.9322C8.12362 31.9601 8.12144 32.0144 8.14611 32.0672C8.15596 32.1169 8.18407 32.1788 8.22859 32.2393C8.23237 32.2447 8.23656 32.249 8.24063 32.2542C8.25516 32.2782 8.27082 32.3026 8.28893 32.3272C8.30704 32.3518 8.3256 32.3741 8.34432 32.3954C8.40344 32.4952 8.46219 32.5954 8.5183 32.6975L8.66836 33.0448L8.73171 33.3209C8.72839 33.4125 8.7368 33.4988 8.70284 33.5858C8.68477 33.6325 8.62097 33.7049 8.62097 33.7549C8.55033 33.8775 8.50539 34.0073 8.39854 34.1048C8.32764 34.1694 8.25138 34.229 8.1783 34.2914L7.98851 34.4887C7.79249 34.6793 7.59429 34.8621 7.38782 35.0412L7.25402 35.1622C7.22908 35.1747 7.18226 35.2163 7.13381 35.2705C7.10638 35.3012 7.08336 35.3306 7.06653 35.3555C7.01477 35.4143 6.97707 35.4678 6.95923 35.5129C6.88576 35.6056 6.85614 35.6816 6.88342 35.7289C6.92127 35.7949 7.0625 35.7939 7.26315 35.74C7.3768 35.7279 7.53094 35.6844 7.70752 35.6154C7.89067 35.5508 8.10567 35.4527 8.33009 35.3303C8.4091 35.2954 8.49132 35.2557 8.57527 35.2126L8.74956 35.1297L8.92701 35.0607L9.14955 34.9285L9.29685 34.8385L9.45027 34.7423L9.66975 34.6013C9.80299 34.5295 9.94233 34.4687 10.0795 34.4049L10.1247 34.3839C10.3002 34.2976 10.474 34.2125 10.6541 34.1361L10.7946 34.094C10.8574 34.0752 10.9132 34.0765 10.9771 34.0801C11.1341 34.0892 11.2058 34.3099 11.2536 34.4259L11.273 34.4787C11.2752 34.513 11.29 34.5732 11.3146 34.6407C11.328 34.6781 11.3434 34.7152 11.3618 34.7505C11.3683 34.7631 11.3753 34.7758 11.3834 34.7874C11.4013 34.8129 11.4208 34.8358 11.4375 34.8624C11.4478 34.8787 11.4604 34.8949 11.4691 34.9123L11.6049 35.1695L11.7033 35.4171C11.7314 35.537 11.8106 35.7201 11.7353 35.8349C11.7005 35.8881 11.6177 35.9702 11.5534 35.9829C11.52 35.9896 11.4865 35.9961 11.4532 36.0027C11.4295 36.0074 11.4058 36.0121 11.3822 36.0169C11.3598 36.0213 11.3372 36.0324 11.3146 36.0387C11.2905 36.0456 11.2654 36.0476 11.2411 36.0523C11.1938 36.0619 11.1477 36.0779 11.1006 36.0871C11.0182 36.1028 10.9435 36.123 10.8798 36.1467C10.6575 36.1664 10.4709 36.2154 10.3516 36.2806C10.2888 36.297 10.2378 36.3241 10.2044 36.3579C10.1848 36.37 10.1676 36.3835 10.1545 36.3984C10.1016 36.4306 10.0687 36.4732 10.0687 36.5205C10.0687 36.5849 10.1285 36.6412 10.2182 36.6736C10.3673 36.7716 10.6637 36.8385 11.0053 36.8385C11.0371 36.8385 11.0687 36.837 11.1003 36.8364C11.1491 36.8357 11.1982 36.8431 11.2473 36.8421C11.2935 36.8412 11.3398 36.8417 11.386 36.8411C11.4778 36.8399 11.5697 36.8399 11.6615 36.8389L11.7219 36.8385L12.2232 36.8337C12.3112 36.8428 12.3746 36.8463 12.4507 36.8971C12.5445 36.9596 12.6412 37.0146 12.7141 37.1042C12.7707 37.1737 12.8211 37.2492 12.8741 37.3217L13.0164 37.5899L13.0954 37.7714C13.194 37.9758 13.3161 38.1422 13.4513 38.3236L13.7437 38.7183L13.9887 39.0813L14.1073 39.2548L14.3207 39.4994L14.471 39.752L14.7002 39.9966L14.8662 40.2649C14.8907 40.3057 14.9082 40.3485 14.9307 40.3905C14.9621 40.4492 14.9952 40.5069 15.0292 40.5641C15.0536 40.6054 15.0787 40.6462 15.1041 40.687C15.1772 40.8049 15.2445 40.9066 15.2891 40.9704C15.2911 40.9728 15.2933 40.9754 15.2955 40.9779C15.332 41.0285 15.3766 41.0741 15.4167 41.1218C15.4606 41.1739 15.5044 41.2259 15.5485 41.2778C15.6362 41.3815 15.7244 41.4849 15.813 41.5879C15.9017 41.6909 15.991 41.7934 16.0812 41.8952C16.1712 41.997 16.2621 42.098 16.354 42.198C16.4462 42.2981 16.5395 42.3974 16.6339 42.4954C16.6458 42.5077 16.6575 42.5198 16.6692 42.532C16.8535 42.7217 16.9936 42.914 17.1426 43.1337C17.283 43.3404 17.4516 43.4902 17.6304 43.664L17.918 44.0106L18.3249 44.4364L18.8506 44.9415L19.3864 45.4466C19.6446 45.6556 19.8999 45.8683 20.1527 46.0842C20.448 46.3365 20.7867 46.5204 21.1026 46.7437L21.6482 47.0805L21.8598 47.2036C21.9255 47.2496 21.9793 47.287 22.0172 47.3123C22.0605 47.3465 22.1241 47.385 22.198 47.4197C22.2965 47.4659 22.3879 47.4933 22.4439 47.4966L22.5014 47.5062C22.5382 47.5062 22.5756 47.5144 22.6124 47.5087C22.6403 47.5044 22.6654 47.4886 22.6899 47.4764C22.8498 47.3963 22.7655 47.1184 22.6899 47.0111C22.5873 46.8659 22.4847 46.7207 22.3823 46.5754C22.3823 46.5754 22.0156 46.1004 22.0153 46.1001C21.8823 45.9278 21.7235 45.7495 21.5787 45.5951L21.1423 45.1297C21.0454 45.0459 20.9631 44.9472 20.8542 44.8779C20.6463 44.7454 20.46 44.6182 20.2792 44.4462L19.8625 44.0503L19.7039 43.872L19.178 43.357L18.9002 43.0501C18.7851 42.9246 18.6556 42.8143 18.5593 42.6728C18.505 42.5927 18.4604 42.5047 18.4042 42.4261L18.2128 42.1588C18.2128 42.1588 18.1046 42.0203 18.0971 42.0106C18.0684 41.9739 17.7646 41.4827 17.6192 41.2505C17.6019 41.2178 17.579 41.1764 17.5525 41.1312C17.5075 41.0546 17.4667 40.9909 17.4472 40.9662L17.3923 40.8713C17.2618 40.6295 17.1452 40.3942 16.9847 40.1702C16.8382 39.8992 16.6883 39.6317 16.534 39.3652L16.3681 39.0495L16.2337 38.7498C16.18 38.6203 16.1387 38.5185 16.123 38.3788L16.044 38.1817L15.7278 37.558L15.5302 37.1557C15.5302 37.1557 15.404 36.8645 15.4037 36.8637C15.3542 36.7495 15.3201 36.6568 15.3301 36.5328C15.3301 36.5328 15.3624 36.4788 15.3647 36.475C15.3949 36.425 15.522 36.313 15.5851 36.313C15.6827 36.313 15.7608 36.3048 15.8523 36.3428C15.899 36.3621 15.9754 36.3786 16.0141 36.4114L16.1707 36.543L16.1907 36.5649L16.4093 36.783L16.5301 36.9209L16.5825 36.972C16.6778 37.0817 16.8458 37.2434 17.0463 37.414C17.3003 37.6306 17.532 37.7986 17.6414 37.8495C17.7893 37.9636 17.9393 38.014 18.0109 37.9737C18.0285 37.9692 18.0441 37.962 18.0551 37.9498C18.0891 37.9112 18.0799 37.8417 18.0387 37.7618C18.034 37.7343 18.0254 37.7047 18.015 37.6744C17.974 37.4925 17.9386 37.3133 17.9113 37.1292C17.9083 37.1085 17.9048 37.0879 17.902 37.0672L17.8819 36.8405L17.8758 36.7323C17.8748 36.7145 17.8744 36.6967 17.8729 36.6789C17.8711 36.6591 17.8669 36.6408 17.8669 36.6207C17.8674 36.5728 17.8601 36.5288 17.8476 36.4825C17.8378 36.4353 17.8275 36.3885 17.8179 36.3413C17.7986 36.2469 17.7821 36.1518 17.7741 36.0557C17.7718 36.0286 17.7703 36.0013 17.7699 35.9741C17.7696 35.9507 17.7646 35.9186 17.7711 35.896C17.8085 35.7671 17.8439 35.6529 17.9508 35.5605L18.0783 35.4506L18.3857 35.3057L18.6582 35.2249L18.9365 35.1495C19.0864 35.0928 19.2382 35.0491 19.3796 34.9719C19.5871 34.8588 19.795 34.7724 20.0149 34.6866C20.0663 34.6594 20.1295 34.6258 20.1846 34.5965C20.2265 34.5741 20.2687 34.5527 20.3103 34.5299C20.3709 34.4966 20.416 34.4388 20.4892 34.4269C20.6047 34.4076 20.666 34.4087 20.7752 34.4437L20.9 34.5123L21.0465 34.6479L21.2225 34.8364L21.3923 35.0307L21.5757 35.2496L21.6582 35.4033L21.6878 35.6578C21.6878 35.6578 21.6727 36.0456 21.6727 36.0464L21.675 36.1623L21.6385 36.3419L21.5953 36.5381L21.5386 36.6944C21.5264 36.7181 21.5142 36.742 21.5019 36.7656C21.4801 36.8077 21.4419 36.8407 21.4257 36.8857C21.4123 36.9226 21.3814 36.9675 21.3871 37.0083C21.3969 37.0776 21.4815 37.0753 21.5325 37.0681C21.6703 37.0485 21.8007 37.0008 21.9331 36.9601C21.9441 36.9566 21.9602 36.9481 21.972 36.9481L22.1576 36.9089L22.4306 36.8064L22.4864 36.7758C22.7761 36.6936 23.0227 36.5311 23.3395 36.6091L23.873 36.7397L24.2758 36.9003C24.5154 37.0002 24.7117 37.0778 24.8898 37.2723C25.0038 37.3971 25.102 37.5076 25.1832 37.6536C25.2518 37.7769 25.3167 37.9023 25.3845 38.0261C25.4003 38.055 25.4135 38.0898 25.4333 38.1163L25.5952 38.3992L25.5935 38.4025L25.7597 38.7339L25.9889 39.2231L26.1391 39.6098L26.2419 39.87L26.3762 40.1623C26.3936 40.2143 26.4106 40.2664 26.4284 40.3183C26.4343 40.3357 26.4392 40.3489 26.4402 40.3674C26.4411 40.39 26.4426 40.4124 26.4442 40.4348C26.4472 40.4793 26.4503 40.5237 26.4494 40.5682C26.4482 40.6268 26.4226 40.6969 26.4438 40.7531C26.4494 40.768 26.4579 40.7824 26.4655 40.7962C26.472 40.8082 26.4754 40.8227 26.4854 40.8327C26.4971 40.8443 26.5128 40.8434 26.528 40.8465C26.5466 40.85 26.5735 40.8614 26.5924 40.8557C26.6004 40.8533 26.6092 40.8463 26.617 40.8424C26.6415 40.8302 26.6651 40.8161 26.6895 40.8034C26.6959 40.8003 26.702 40.7968 26.7082 40.7935L26.9296 40.533L27.064 40.3516L27.2537 40.0359L27.3644 39.6809L27.5383 39.1758L27.6647 38.947C27.6647 38.947 27.8581 38.677 27.8623 38.6708C27.9566 38.5392 28.0381 38.4022 28.1153 38.2605L28.3445 37.9685L28.5343 37.8186C28.6601 37.7769 28.751 37.7568 28.8821 37.7584C28.9583 37.7594 29.0353 37.7592 29.1114 37.7633L29.4354 37.7791L29.7913 37.858L30.0599 37.9371L30.3367 38.0317L30.5581 38.0711L31.1352 38.2288C31.2641 38.2753 31.3824 38.3053 31.4962 38.3843C31.5011 38.3877 31.5187 38.3989 31.5415 38.4135C31.5821 38.4342 31.6246 38.4565 31.6692 38.4808C31.8536 38.5817 32.0011 38.6763 32.0348 38.7135L32.3625 38.9293C32.3815 38.944 32.4005 38.9586 32.4193 38.9733C32.466 39.0095 32.5127 39.0456 32.5592 39.0817C32.6175 39.1271 32.6757 39.1722 32.7339 39.2172C32.7885 39.2592 32.8429 39.3013 32.8972 39.3435C32.9346 39.3725 32.9735 39.4004 33.0093 39.4316C33.0532 39.4701 33.0869 39.5258 33.122 39.5721C33.1634 39.6271 33.2059 39.6813 33.2475 39.7361C33.2562 39.7476 33.2643 39.7613 33.2745 39.7714C33.3296 39.8263 33.3843 39.8817 33.4401 39.936C33.454 39.9494 33.4667 39.9646 33.4827 39.9759C33.5007 39.9885 33.522 39.9947 33.542 40.0033C33.5609 40.0112 33.5777 40.0239 33.5975 40.0291C33.62 40.0347 33.6373 40.026 33.6571 40.016C33.6658 40.0016 33.679 39.9884 33.684 39.9719C33.6892 39.9545 33.6826 39.9326 33.6806 39.915C33.6783 39.8935 33.6684 39.8635 33.6799 39.8436C33.6918 39.8232 33.6893 39.8044 33.6858 39.7824C33.6825 39.7616 33.6817 39.7402 33.679 39.7191C33.6733 39.6762 33.6698 39.633 33.6647 39.59C33.6636 39.5803 33.6626 39.5708 33.6614 39.5612L33.583 39.2088L33.5241 38.827L33.3868 38.2689C33.3868 38.2689 33.3868 38.1017 33.3868 37.978C33.4457 37.8281 33.4734 37.7007 33.5849 37.5769C33.7053 37.443 33.8255 37.3053 33.9883 37.2215C34.1149 37.1564 34.2428 37.0884 34.3728 37.0302C34.5974 36.9298 34.8252 36.8394 35.0413 36.7209C35.1419 36.6656 35.2267 36.5847 35.3329 36.5388C35.3453 36.5335 35.3586 36.5284 35.3718 36.5252C35.4231 36.5128 35.4656 36.4879 35.5114 36.4624C35.5683 36.4307 35.6251 36.3988 35.6823 36.3679C35.7476 36.3326 35.8128 36.2973 35.8778 36.2614C35.9317 36.2315 35.9856 36.2019 36.0398 36.1727C36.0656 36.1587 36.0917 36.1449 36.1185 36.1296L36.599 35.8457L36.7634 35.746L36.9635 35.6495L37.1716 35.5119L37.3235 35.4577L37.4636 35.436C37.5046 35.4343 37.5398 35.4266 37.5801 35.4378C37.6041 35.4441 37.6285 35.4504 37.6519 35.4582L37.7009 35.4738C37.736 35.4821 37.7887 35.4971 37.8478 35.5161C37.9052 35.5346 37.9554 35.5526 37.9888 35.5663L38.0879 35.598L38.4573 35.7908L38.7427 36.0255C38.8 36.101 38.8579 36.1764 38.915 36.2522C38.9814 36.3402 38.9933 36.4644 39.0198 36.5703L38.9694 36.9138L38.8015 37.2409C38.7518 37.3155 38.6908 37.3977 38.6533 37.4791C38.6145 37.5632 38.5955 37.6634 38.5685 37.7525C38.5599 37.7805 38.5521 37.8071 38.5518 37.8374C38.5517 37.8588 38.5406 37.8784 38.5406 37.8999C38.5406 37.9688 38.6198 38.0248 38.7175 38.0248C38.7452 38.0248 38.7729 38.02 38.7989 38.0102C38.827 37.9993 38.8496 37.9807 38.8789 37.9716C38.8977 37.9654 38.9174 37.9591 38.9359 37.9534C38.9359 37.9534 39.0588 37.9124 39.0617 37.9115C39.0999 37.8988 39.136 37.8868 39.173 37.8709C39.2342 37.8482 39.293 37.8343 39.3465 37.7953L39.5418 37.6928L39.7868 37.56L39.9187 37.4926C39.9962 37.4689 40.0714 37.4397 40.1532 37.431C40.1954 37.4264 40.2544 37.4093 40.2961 37.417L40.384 37.4329L40.48 37.4588C40.5471 37.494 40.5851 37.5339 40.6341 37.5911C40.6525 37.6744 40.6643 37.7289 40.6459 37.8125C40.6369 37.8548 40.6365 37.9217 40.6148 37.9594L40.4238 38.2901L40.3036 38.5406C40.2213 38.7293 40.1285 38.9336 39.9924 39.0916C39.8477 39.2595 39.6804 39.4205 39.5702 39.6134C39.5096 39.7196 39.4495 39.8262 39.3902 39.9332L39.1693 40.2538C38.9801 40.4978 38.765 40.7423 38.6262 41.0198C38.5783 41.1152 38.5396 41.223 38.4816 41.3128C38.357 41.5051 38.2353 41.6961 38.1245 41.8967L37.9498 42.1773L37.7826 42.4425C37.6777 42.5759 37.5793 42.7053 37.4939 42.8522C37.389 43.0294 37.2589 43.1694 37.1218 43.3222L36.8103 43.6862C36.7094 43.8205 36.5814 43.9165 36.4616 44.0284L36.3942 44.0841L36.1586 44.3449L35.8563 44.6926C35.6964 44.8525 35.5536 45.014 35.4106 45.1886L35.1442 45.5159C35.0867 45.6164 35.0255 45.6709 34.9364 45.7431C34.8088 45.847 34.6954 45.9557 34.5808 46.0736L34.432 46.2219L34.2065 46.4518L34.0017 46.6717L33.7865 46.8763L33.5048 47.1576C33.3908 47.2659 33.2844 47.3811 33.1616 47.4798C33.0982 47.5306 33.0243 47.576 32.9669 47.6333C32.8627 47.7372 32.7343 47.8368 32.6147 47.923C32.5328 47.9821 32.4131 48.0326 32.348 48.1106L32.1607 48.3229L31.943 48.5504L31.7455 48.7323L31.3809 49.0306L31.1631 49.2227L30.8795 49.4804L30.6567 49.7281L30.3934 49.9808C30.1837 50.1348 29.9714 50.2904 29.7716 50.4571C29.571 50.6244 29.4002 50.7938 29.2771 50.9405C29.0896 51.0897 28.9992 51.284 29.0738 51.39C29.1418 51.4864 29.3241 51.4783 29.5099 51.382C29.7022 51.3514 29.9797 51.2523 30.2724 51.1006C30.4078 51.0307 30.5316 50.9567 30.6397 50.8836C30.8157 50.804 31.013 50.6966 31.2153 50.566C31.5062 50.3782 31.7508 50.1796 31.9118 50.0103L32.1304 49.814L32.3024 49.6674L32.4544 49.5208L32.6317 49.3944L32.7937 49.2934L32.9962 49.167L33.2748 49.0204L33.3584 48.9682L33.4895 48.8912L33.971 48.5537C34.1311 48.429 34.2858 48.3001 34.4544 48.1868C34.5778 48.1039 34.6975 48.0285 34.8106 47.9317C34.8808 47.8714 34.9508 47.8111 35.021 47.7509C35.1303 47.6571 35.2405 47.5441 35.3695 47.4798L35.5182 47.3672L35.7641 47.1523L35.8769 47.0552C36.0298 46.9479 36.1829 46.841 36.3359 46.7336C36.4001 46.6885 36.4506 46.6323 36.5121 46.5847L36.9167 46.2879C37.1233 46.1446 37.3279 46.0013 37.5417 45.8689L37.8132 45.6847C38.1073 45.4852 38.3827 45.2553 38.6445 45.0161C38.6787 44.9848 38.7131 44.9532 38.7475 44.9222L39.0437 44.6265L39.4159 44.2777L39.6514 44.0198C39.7764 43.8899 39.8815 43.7514 39.9995 43.6159C40.1197 43.4783 40.2587 43.359 40.3807 43.2236L40.6314 42.9431L40.8518 42.7003L41.0645 42.4273L41.2751 42.126L41.5482 41.7966C41.6539 41.6436 41.7548 41.4852 41.8673 41.337C41.9623 41.2117 42.0814 41.104 42.1518 40.9612C42.2038 40.8564 42.2516 40.7457 42.3108 40.6445L42.622 40.1135C42.7073 39.8585 42.8719 39.654 43.023 39.4327C43.1215 39.2882 43.234 39.1727 43.3175 39.0165C43.3646 38.9282 43.4047 38.821 43.4651 38.7409L43.9969 38.0596L44.1274 37.8091C44.1274 37.8091 44.247 37.6598 44.2479 37.6589C44.2821 37.6162 44.4097 37.5136 44.4658 37.5081L44.6309 37.4882L44.8094 37.5015L45.1335 37.5543L45.4838 37.6203L45.7019 37.7127L45.8407 37.8051L46.0721 38.0161L46.2772 38.2272L46.4025 38.333C46.4025 38.333 46.561 38.5238 46.5613 38.5242C46.6202 38.5952 46.7661 38.7671 46.8567 38.6422C46.9193 38.5561 46.9177 38.4326 46.9644 38.3394L47.1033 38.0888L47.2223 37.904C47.3097 37.7887 47.3979 37.6747 47.4879 37.5613C47.4985 37.5479 47.5094 37.5349 47.5197 37.5214C47.5428 37.4922 47.5764 37.4678 47.6034 37.4424C47.6479 37.4003 47.6924 37.358 47.7369 37.316C47.8228 37.2351 47.924 37.1678 48.0177 37.0962C48.0279 37.0884 48.0379 37.0797 48.0486 37.0725L48.2864 36.9404L48.597 36.7888L48.8417 36.6435L49.0599 36.5249L49.212 36.4127L49.4499 36.2015L49.6284 36.0432L49.7541 35.9047C49.7699 35.875 49.814 35.8287 49.7991 35.7941C49.7938 35.781 49.7665 35.7407 49.7538 35.7333ZM19.2113 33.7351L19.1243 33.8277L19.0547 33.8855L18.8633 33.9897L18.6605 34.1053C18.5564 34.1646 18.4552 34.2311 18.3425 34.273C18.2258 34.3163 18.0976 34.3293 17.9763 34.3542L17.7211 34.4063L17.2979 34.4237C17.1261 34.4276 16.9728 34.4441 16.8049 34.4758L16.5441 34.5395L16.2947 34.6147L15.9875 34.713L15.7729 34.7709L15.5469 34.8347L15.2337 34.9619C15.1419 34.9972 15.0482 35.0539 14.9498 35.0411C14.9063 35.0354 14.8617 35.0288 14.8197 35.0154C14.7898 35.0059 14.7292 34.956 14.7035 34.956C14.6601 34.9228 14.5909 34.8882 14.5576 34.8447C14.5071 34.7788 14.4554 34.7136 14.4062 34.6472C14.3613 34.5865 14.3426 34.5143 14.3152 34.444C14.256 34.2926 14.1916 34.143 14.1391 33.9891C14.0833 33.8255 14.0231 33.6572 14.0231 33.4808C14.0231 33.4808 14.0231 33.1846 14.0231 33.1837C14.0231 33.0658 14.1464 32.9917 14.2306 32.9344C14.2479 32.9226 14.2952 32.8767 14.3156 32.8767L14.492 32.8165L14.7542 32.7561C14.8364 32.7423 14.9185 32.7268 14.9995 32.707C15.0408 32.6968 15.1004 32.6703 15.1396 32.6703L15.2683 32.6436L15.4452 32.6382L15.7187 32.6327L15.9279 32.6382C16.1644 32.6925 16.3936 32.6943 16.6357 32.7023L17.1292 32.7184L17.4081 32.7666C17.4499 32.7738 17.4939 32.8055 17.5345 32.8192C17.654 32.8596 17.7904 32.8789 17.9121 32.911L18.3304 33.0503L18.5824 33.1306C18.5824 33.1306 18.8528 33.2479 18.8531 33.2485L18.9946 33.3119L19.0142 33.3239L19.0954 33.3819L19.165 33.4571L19.217 33.5324C19.2305 33.569 19.2415 33.6037 19.2469 33.6424C19.2514 33.6747 19.2251 33.7076 19.2113 33.7351ZM36.336 34.3976C36.3214 34.4404 36.3049 34.4822 36.288 34.5246L36.2783 34.555C36.2292 34.6559 36.183 34.7314 36.086 34.8168C36.0128 34.8808 35.9351 34.9572 35.862 35.0142L35.5864 35.2295C35.4179 35.3612 35.1824 35.3934 34.976 35.4253L34.6609 35.3764L34.3165 35.2786L33.9326 35.1512L33.8495 35.1269C33.7944 35.1108 33.7 35.0753 33.6517 35.1221C33.6408 35.1326 33.6337 35.1464 33.6303 35.1609C33.6215 35.1994 33.6368 35.2421 33.6449 35.2792C33.6554 35.3279 33.6667 35.376 33.6774 35.4243C33.6799 35.4353 33.6837 35.4469 33.6849 35.458L33.7012 35.6178L33.695 35.6585C33.6891 35.6969 33.6698 35.7362 33.6527 35.7725C33.6383 35.8038 33.6104 35.8321 33.5913 35.8612C33.5705 35.8932 33.5487 35.9248 33.525 35.9548C33.4747 36.0191 33.4161 36.0765 33.3497 36.1248C33.235 36.2082 33.1224 36.3175 32.9974 36.3847C32.6759 36.5579 32.3544 36.7309 32.0327 36.9037L31.5492 37.0186L31.2945 37.0319L31.1314 37.0402C30.8111 37.022 30.4982 37.0402 30.1792 37.0324C29.9219 37.0261 29.6681 37.0389 29.4139 36.9902C29.27 36.9626 29.1262 36.9261 28.9811 36.9062L28.3701 36.7958C28.3701 36.7958 27.7214 36.591 27.7194 36.5905C27.5749 36.5458 27.4258 36.4925 27.3225 36.3764C27.2206 36.2615 27.2115 36.1134 27.1897 35.969L27.1644 35.6047L27.1683 35.4253L27.1852 35.2002L27.1836 35.1398L27.1897 35.0588L27.1835 34.8326L27.1516 34.598C27.1516 34.5933 27.1516 34.5886 27.151 34.584C27.1551 34.5563 27.1581 34.5274 27.1581 34.4969C27.1581 34.3385 27.098 34.2083 27.0194 34.1848C27.0003 34.1739 26.9775 34.1725 26.9551 34.1795C26.9394 34.1817 26.9225 34.1889 26.9063 34.202C26.834 34.2467 26.6401 34.4773 26.4322 34.7699C26.4137 34.7958 26.3958 34.8216 26.3784 34.8468L26.3312 34.8953C26.1395 35.1098 25.965 35.4268 25.7064 35.5671L25.4224 35.7429C25.4224 35.7429 25.2025 35.8927 25.2015 35.8935C25.1148 35.9526 24.9971 35.9699 24.8922 35.9814L24.7406 36.0065C24.4954 36.0272 24.2948 36.0202 24.0526 35.9374L23.693 35.7178L23.2321 35.3098L22.7397 34.7761L22.3989 34.4436L22.058 34.2113L21.7866 33.9727L21.6416 33.8409L21.5456 33.7054L21.5235 33.6624L21.5061 33.6242L21.4933 33.5953L21.491 33.5721L21.4945 33.5512L21.5026 33.5177L21.5142 33.4771L21.5144 33.476C21.5158 33.4741 21.5166 33.4714 21.5181 33.4696C21.5193 33.4616 21.5209 33.4535 21.5235 33.4458C21.5602 33.3356 21.7142 33.2411 21.8032 33.1764C21.9271 33.0864 22.0577 33.0056 22.2037 32.9561L22.4367 32.8744C22.557 32.849 22.6607 32.8164 22.783 32.8557C22.9132 32.8973 23.0482 32.9323 23.1649 33.0059C23.2693 33.0715 23.3482 33.1683 23.4318 33.2575L23.6144 33.4521C23.6144 33.4521 23.7654 33.6686 23.7716 33.6777C23.8188 33.7453 23.8365 33.829 23.8846 33.896C23.9076 33.9278 23.9338 33.9539 23.9563 33.9857C23.9772 34.0151 24.0022 34.048 24.0423 34.0484C24.1824 34.049 24.2167 33.7546 24.2461 33.6592L24.3091 33.455C24.3797 33.226 24.3668 32.9794 24.3668 32.7425C24.3646 32.658 24.35 32.5844 24.3723 32.5015C24.3833 32.4607 24.3905 32.3888 24.4141 32.3552L24.5244 32.198L24.8449 31.9099C24.9544 31.8134 25.073 31.6667 25.2095 31.6138C25.3486 31.5598 25.4975 31.5037 25.6491 31.5329L25.9259 31.5837C26.0108 31.5937 26.0934 31.6128 26.1792 31.6033C26.2069 31.6003 26.2346 31.5973 26.2624 31.5945C26.2728 31.5935 26.5024 31.4276 26.5024 31.4276L26.6814 31.2491C26.7882 31.1726 26.8695 31.0971 27.0019 31.0715C27.0761 31.0572 27.1615 31.0224 27.2371 31.0224H27.3527L27.7689 31.0065L28.2386 31.0329L28.5588 31.0755L28.8548 31.079L29.2849 31.11L29.8127 31.1668L30.227 31.2559C30.343 31.3014 30.4657 31.322 30.5632 31.404C30.6272 31.458 30.6913 31.5269 30.7467 31.5877L30.9903 31.8547C31.069 32.0041 31.1452 32.1082 31.1668 32.2771C31.1789 32.3745 31.2188 32.4934 31.2097 32.5912C31.1868 32.8376 31.1579 33.068 31.1743 33.3152C31.1833 33.4525 31.157 33.5998 31.2015 33.7326L31.2909 33.9998C31.3186 34.0534 31.4016 34.3033 31.4938 34.2913C31.5213 34.2867 31.5382 34.2867 31.56 34.2682C31.5725 34.2577 31.589 34.2466 31.5994 34.2345C31.6169 34.2142 31.6334 34.1931 31.6525 34.1741C31.6886 34.1382 31.6959 34.1124 31.7021 34.0634C31.7088 34.012 31.7127 33.9599 31.7173 33.9082C31.7184 33.8959 31.7184 33.8822 31.7211 33.8702L31.8023 33.5141L31.9404 33.2228L32.1191 32.9556L32.387 32.6561L32.7037 32.3892L33.0044 32.2111L33.2967 32.0734C33.4029 32.0541 33.5114 32.0201 33.6195 32.0325C33.677 32.0392 33.7347 32.0488 33.7919 32.0571L34.0356 32.0734L34.1451 32.0959L34.3966 32.1964L34.5252 32.2726L34.63 32.349L34.6733 32.3855C34.8638 32.5951 35.0621 32.7946 35.2629 32.9947L35.4819 33.2234L35.8887 33.5248C35.8887 33.5248 36.1261 33.751 36.1287 33.7537C36.2003 33.8218 36.2442 33.9185 36.2756 34.0107C36.2879 34.0467 36.3006 34.0829 36.3108 34.1198C36.3233 34.1645 36.3336 34.2129 36.34 34.2588C36.346 34.3007 36.3498 34.3569 36.336 34.3976ZM42.4536 33.9983C42.4432 34.0366 42.4328 34.0747 42.4226 34.113L42.3627 34.3476L42.3659 34.3494C42.3166 34.5117 42.2673 34.6741 42.2193 34.8369C42.1619 35.0269 42.1037 35.2032 42.016 35.3821C41.9777 35.4499 41.9518 35.5247 41.9074 35.589C41.8614 35.6558 41.795 35.7108 41.7376 35.7675C41.5649 35.9383 41.323 35.9623 41.0917 35.9707C40.968 35.9752 40.8103 35.9264 40.6946 35.8844L40.4536 35.7971L40.3294 35.7241L40.096 35.5783L39.6945 35.389C39.5596 35.3127 39.4285 35.2376 39.2857 35.1776L39.1761 35.1049L39.0739 35.0248C39.0211 34.9673 38.9728 34.9395 38.9866 34.8584C39.01 34.724 39.1064 34.6772 39.2153 34.6152L39.4222 34.5249L39.6928 34.3928C39.7641 34.36 39.8329 34.3229 39.9088 34.301C39.9826 34.2796 40.077 34.2886 40.1461 34.2609L40.3223 34.2233C40.441 34.2004 40.5298 34.1696 40.6369 34.1164L40.8134 34.0347L40.977 33.9405L41.2412 33.8461L41.4176 33.8085L41.6756 33.7269L41.8638 33.6658C41.9691 33.6603 42.0893 33.6368 42.1937 33.6494C42.2972 33.6618 42.389 33.7562 42.4265 33.8505C42.4506 33.9104 42.4701 33.9385 42.4536 33.9983ZM31.4759 16.6058C31.4027 16.6058 31.3422 16.6523 31.2948 16.7037C31.2783 16.7215 31.2673 16.7387 31.2629 16.7508C31.2437 16.803 31.1977 16.8382 31.1692 16.8847C31.1395 16.9331 31.1194 16.9871 31.1109 17.0432C31.1066 17.072 31.1048 17.1016 31.1048 17.1306C31.1048 17.1389 31.1056 17.1464 31.1058 17.1545L31.1034 17.1548L31.0978 17.2602C31.0941 17.304 31.0864 17.3437 31.0757 17.3864C31.068 17.417 31.0586 17.4475 31.0436 17.4754C31.0281 17.5043 31.0087 17.531 30.9957 17.5612L30.9724 17.6063L30.9377 17.6607C30.9158 17.6956 30.8945 17.7241 30.8653 17.7529C30.8409 17.7768 30.8168 17.8007 30.7924 17.8246C30.7601 17.8563 30.728 17.877 30.7038 17.9163C30.6924 17.9348 30.679 17.947 30.6637 17.9619C30.6324 17.993 30.6093 18.0278 30.595 18.0615L30.591 18.0642L30.5192 18.2396C30.4891 18.3106 30.4591 18.3817 30.4293 18.4527L30.3596 18.5783L30.3077 18.6859C30.2733 18.7575 30.243 18.8251 30.2198 18.9009L30.192 19.0183L30.172 19.2176L30.1659 19.4467C30.1659 19.4467 30.16 19.4964 30.1616 19.4962L30.1545 19.5404L30.1436 19.6179L30.1342 19.6704L30.1234 19.7044C30.1046 19.7636 30.1053 19.8253 30.1017 19.8868L30.1003 20.0338C30.1003 20.0338 30.094 20.1045 30.094 20.105C30.0917 20.1314 30.0846 20.1515 30.0893 20.1786C30.0924 20.1961 30.0956 20.2142 30.0987 20.2317C30.1074 20.2657 30.1126 20.2995 30.1273 20.3318C30.1357 20.3502 30.1461 20.3686 30.1529 20.3877L30.1684 20.4311C30.1757 20.4513 30.1818 20.4722 30.1884 20.4929L30.1993 20.5392L30.2087 20.5949C30.2126 20.6227 30.2136 20.6506 30.2101 20.6783L30.2025 20.7293L30.19 20.7771L30.1808 20.9009L30.1731 21.0247L30.1715 21.1482C30.166 21.2046 30.1591 21.2596 30.1483 21.3153L30.1358 21.3724C30.1174 21.4281 30.113 21.4864 30.1091 21.5445C30.1075 21.5678 30.1061 21.591 30.1048 21.6142C30.1019 21.6643 30.1055 21.715 30.1017 21.7654C30.0985 21.8102 30.0897 21.8506 30.077 21.8934C30.0591 21.9917 30.0375 22.0891 30.0158 22.1865L30.0075 22.2234C29.9826 22.3349 29.9672 22.4489 29.9575 22.5625C29.9478 22.6779 29.9437 22.7938 29.9411 22.9096C29.9392 22.99 29.9385 23.0704 29.9385 23.1507C29.9385 23.2791 29.9408 23.4071 29.9457 23.5352C29.9494 23.6291 29.9546 23.7232 29.9653 23.8166C29.9711 23.8686 29.9832 23.9201 29.9929 23.9716L30.0117 24.0897C30.0251 24.1681 30.0328 24.2443 30.0358 24.3236C30.0399 24.402 30.0426 24.4802 30.0426 24.5586L30.0435 24.5724C30.0418 24.645 30.0409 24.7215 30.0409 24.8006C30.0409 25.0745 30.0529 25.3488 30.0794 25.6214L30.0945 25.7188L30.1029 25.853V26.0187C30.1029 26.386 30.1063 26.719 30.1119 26.9658L30.1103 26.9914L30.1158 27.2702L30.1213 27.4354L30.1429 27.557L30.1563 27.633L30.17 27.7575C30.17 27.7575 30.1752 27.9206 30.1754 27.928C30.1788 28.0391 30.1787 28.1302 30.2241 28.2339C30.2534 28.2705 30.2767 28.2937 30.3163 28.3177L30.32 28.318C30.346 28.3311 30.3744 28.3381 30.4046 28.3381C30.4334 28.3381 30.4607 28.331 30.4858 28.3182C30.5003 28.3215 30.5404 28.2969 30.5829 28.2572C30.5986 28.2424 30.6113 28.2282 30.6223 28.2148L30.6267 28.2105C30.7016 28.1497 30.7748 28.0468 30.8256 27.9192C30.8643 27.8215 30.8818 27.727 30.8827 27.6446L30.8982 27.5291L30.9123 27.4817L30.9142 27.4737L30.9697 27.2865L31.0212 27.1106L31.089 26.9726L31.1595 26.8536L31.2083 26.756L31.2355 26.6857L31.2654 26.5747L31.2816 26.4989L31.3032 26.4285L31.3277 26.3554L31.3467 26.3148L31.3792 26.2497L31.4228 26.1765L31.4634 26.124C31.4833 26.1031 31.503 26.0823 31.5228 26.0615C31.5425 26.0406 31.5531 26.0234 31.5659 25.9974C31.5769 25.9748 31.5842 25.9541 31.6014 25.935C31.612 25.9234 31.6236 25.9119 31.6335 25.8995L31.6956 25.8205L31.7649 25.725C31.8025 25.6733 31.8296 25.6069 31.8512 25.5456L31.8799 25.4813L31.9446 25.3857L32.0235 25.2304C32.0474 25.1837 32.0765 25.1397 32.0957 25.0904C32.1194 25.029 32.1208 24.9609 32.1264 24.8959L32.1308 24.869C32.1756 24.7412 32.2248 24.4483 32.255 24.105C32.2705 23.9284 32.2788 23.7641 32.2801 23.6279C32.2902 23.479 32.2974 23.2992 32.3003 23.1021C32.3114 22.9922 32.3181 22.851 32.3181 22.6969C32.3181 22.6399 32.3136 22.5855 32.318 22.5286C32.3211 22.4854 32.3118 22.4422 32.3166 22.3988C32.3221 22.3479 32.3426 22.2988 32.3517 22.2484C32.3611 22.1953 32.3668 22.1414 32.3708 22.0877C32.3744 22.0382 32.376 21.9886 32.376 21.9391C32.376 21.9283 32.376 21.9174 32.3752 21.9065C32.3936 21.7031 32.4045 21.4654 32.4047 21.21C32.4047 20.9973 32.3978 20.7845 32.3807 20.5724C32.3775 20.5334 32.3671 20.4951 32.3668 20.4559C32.3665 20.4238 32.3755 20.3922 32.3783 20.3604C32.3852 20.2793 32.3799 20.1972 32.3684 20.1166C32.3616 20.0685 32.3523 20.0207 32.3399 19.9735C32.3297 19.9353 32.3087 19.9008 32.3061 19.8607C32.3038 19.8249 32.308 19.7874 32.3085 19.7514C32.3098 19.6641 32.3114 19.5769 32.312 19.4897C32.3124 19.4353 32.3126 19.3807 32.3126 19.3263C32.3126 19.1035 32.3117 18.8806 32.3008 18.6579C32.2977 18.5923 32.2868 18.5258 32.2791 18.4606L32.2662 18.3703C32.2662 18.2865 32.2647 18.2017 32.2647 18.1184L32.2587 17.9985L32.2248 17.8386L32.2031 17.7373L32.1663 17.6512L32.1355 17.5621C32.1127 17.4962 32.0938 17.4347 32.0535 17.3767C32.0209 17.3295 32.0113 17.2699 31.992 17.2169C31.9575 17.1218 31.9138 17.0283 31.8616 16.9417C31.8395 16.9049 31.8105 16.8719 31.785 16.8374C31.7625 16.8074 31.7372 16.7758 31.7054 16.7549C31.6838 16.7408 31.6587 16.7184 31.6429 16.6975C31.6008 16.6414 31.542 16.6058 31.4759 16.6058ZM56.9973 27.1178V26.8653C56.9942 26.7415 56.9889 26.6235 56.9707 26.5009L56.9237 26.3393L56.8765 26.2072L56.8326 26.0779L56.803 25.9634C56.7895 25.9246 56.7729 25.8895 56.7554 25.8547C56.728 25.7839 56.6925 25.7101 56.6487 25.6364C56.5456 25.463 56.4208 25.3286 56.3086 25.2583C56.2828 25.2286 56.2555 25.2034 56.2276 25.1838C56.1808 25.1235 56.1256 25.0794 56.074 25.0566L55.8801 24.9425C55.7746 24.8936 55.6754 24.8517 55.5637 24.8203L55.4345 24.7659L55.3664 24.7286L55.2814 24.698L55.0739 24.647L54.9311 24.62C54.8746 24.609 54.8132 24.6056 54.7593 24.596C54.6298 24.5725 54.2418 24.5553 53.7833 24.5553C53.4805 24.5553 53.2093 24.5629 53.0221 24.5747L52.9212 24.5724C52.8298 24.5787 52.74 24.5874 52.649 24.5996L52.5369 24.613C52.3338 24.6376 52.1357 24.6369 51.9323 24.6439C51.8798 24.6457 51.8273 24.6475 51.7748 24.6493C51.6635 24.645 51.5708 24.6534 51.4619 24.6693L51.3288 24.6891C51.2499 24.6942 51.171 24.7003 51.0921 24.7038C51.0032 24.7076 50.9297 24.7233 50.8398 24.7468C50.7527 24.7691 50.6649 24.7874 50.5782 24.8105C50.5289 24.8236 50.48 24.8383 50.4323 24.856C50.3937 24.8703 50.3633 24.8981 50.3261 24.9147C50.292 24.9296 50.2532 24.9339 50.2168 24.9417L50.0572 25.0082L49.9107 25.0881C49.8257 25.129 49.7386 25.15 49.668 25.2159C49.6277 25.2534 49.5846 25.2874 49.5428 25.3229C49.5136 25.348 49.4893 25.3714 49.4565 25.3923L49.3972 25.429L49.3348 25.4661L49.2674 25.503C49.1826 25.5495 49.1021 25.6011 49.0155 25.6456C48.985 25.6612 48.9598 25.6862 48.9299 25.7011L48.8624 25.7423L48.8078 25.7828C48.7737 25.7994 48.7385 25.8143 48.7078 25.8365C48.6726 25.8618 48.6417 25.8994 48.6154 25.9334L48.5633 26.0011C48.5498 26.0265 48.5359 26.0521 48.5222 26.0776C48.4895 26.1385 48.4556 26.198 48.4556 26.2698C48.4556 26.3159 48.4691 26.3585 48.4911 26.3968C48.5258 26.4566 48.5504 26.4979 48.6056 26.5403C48.6503 26.5743 48.6818 26.6194 48.7318 26.6537C48.7863 26.6913 48.85 26.7246 48.9207 26.7503C48.9283 26.7531 48.9357 26.7552 48.9434 26.7578L49.0682 26.8117C49.0969 26.8208 49.1251 26.8292 49.1526 26.8369C49.1706 26.8445 49.1892 26.8516 49.2091 26.8579C49.2696 26.8764 49.3273 26.8838 49.3748 26.8816C49.3888 26.8835 49.4023 26.8856 49.4168 26.8873C49.4895 26.8955 49.5631 26.9004 49.6357 26.9104C49.7501 26.9261 49.8465 26.9257 49.9608 26.9146C50.0292 26.9081 50.0981 26.8984 50.1666 26.8948L50.3696 26.8845L50.5545 26.8931C50.6568 26.8981 50.7591 26.915 50.8605 26.927C50.8719 26.9283 50.884 26.9312 50.8953 26.9312C50.9545 26.9312 51.0118 26.9376 51.0706 26.9315C51.1205 26.9261 51.1704 26.9204 51.2203 26.9148C51.2332 26.9134 51.2468 26.9104 51.2597 26.9104L51.5097 26.8793C51.5675 26.8676 51.6252 26.8561 51.6832 26.8445C51.731 26.8349 51.779 26.8333 51.8271 26.8273C51.8925 26.8191 51.9645 26.8115 52.0302 26.8273L52.1603 26.8584L52.228 26.8845L52.3199 26.9428L52.3749 27.0007L52.4449 27.0794L52.4975 27.1758L52.5326 27.2546L52.5371 27.3334L52.5545 27.4472L52.5984 27.5961L52.6599 27.793L52.7126 28.0031L52.7607 28.1915L52.8133 28.3491L52.8835 28.5417L52.9368 28.6992L53.0008 28.9L53.0256 29.1507L53.0747 29.539L53.0698 29.8782C53.0383 30.0528 53.0499 30.1951 53.0698 30.3697L53.0747 30.5122L53.0451 30.7483L53.0156 31.0528L53.0108 31.1806L53.0206 31.3576L53.0451 31.579L53.0503 31.7559L53.0404 31.9327C53.0271 32.0388 53.034 32.1319 53.0451 32.2376C53.056 32.3571 53.0658 32.4768 53.0747 32.5965L53.0451 32.8619L53.0108 33.2156L53.0037 33.299L53.0008 33.2993L52.9862 33.4418L52.9024 33.7908L52.8777 34.0512L52.8088 34.3659C52.7984 34.4136 52.8081 34.474 52.8061 34.5232C52.8037 34.5758 52.8 34.6285 52.7928 34.6808C52.7857 34.7327 52.7754 34.784 52.7606 34.8342C52.7374 34.9133 52.705 34.9863 52.6863 35.0672C52.6747 35.1169 52.6632 35.1666 52.6514 35.2163C52.6142 35.3739 52.577 35.5307 52.5597 35.692C52.5567 35.7209 52.5587 35.75 52.5535 35.7786C52.55 35.798 52.5432 35.8165 52.5388 35.8358C52.5345 35.8549 52.5353 35.8735 52.5343 35.8929C52.5332 35.9167 52.532 35.9403 52.531 35.9639C52.5279 36.0312 52.5246 36.0984 52.5214 36.1655C52.5179 36.2379 52.5146 36.3102 52.5111 36.3826C52.5084 36.4421 52.5055 36.5016 52.5027 36.5609C52.5014 36.589 52.5002 36.6169 52.4987 36.6468L52.4839 36.8631L52.4788 37.104C52.4782 37.1306 52.4666 37.1611 52.4609 37.1873C52.4547 37.2159 52.4457 37.2453 52.4437 37.2745C52.4414 37.3048 52.4396 37.3349 52.4363 37.365C52.4334 37.3905 52.4302 37.4144 52.4268 37.4359L52.4159 37.6131C52.369 37.8931 52.3686 38.1709 52.3622 38.4545L52.3393 39.143L52.2933 39.4567C52.2902 39.6267 52.3111 39.7945 52.2595 39.9591C52.2097 40.1194 52.1665 40.2817 52.1586 40.4504C52.1559 40.5091 52.153 40.5679 52.1499 40.6265C52.1491 40.6434 52.1482 40.6602 52.1473 40.677C52.1455 40.7116 52.1387 40.745 52.1384 40.78C52.1379 40.8185 52.1392 40.8569 52.1385 40.8954C52.1371 40.9675 52.1358 41.0397 52.1345 41.1119C52.1342 41.1267 52.136 41.1432 52.1336 41.158L52.0952 41.3587L52.031 41.5807L52.0138 41.7046L52.0053 41.9822C51.9906 42.0834 51.9672 42.186 51.9625 42.2881C51.9579 42.3909 51.9652 42.4921 51.9454 42.5938C51.9279 42.6837 51.9087 42.7732 51.8906 42.8626C51.8861 42.8852 51.8815 42.9077 51.877 42.9303C51.8484 43.0708 51.8075 43.1947 51.7981 43.3391C51.7968 43.3591 51.7942 43.3791 51.7907 43.3991C51.7758 43.4354 51.749 43.5193 51.7213 43.6183C51.7096 43.6596 51.6995 43.698 51.691 43.7321L51.6502 43.869L51.5261 44.1936C51.5261 44.1936 51.4368 44.4378 51.4375 44.4378C51.4084 44.5103 51.3791 44.5984 51.3532 44.6946C51.3126 44.8465 51.2901 44.9843 51.2872 45.077C51.2741 45.1295 51.2635 45.1796 51.2551 45.2263L51.2028 45.37L51.1525 45.5907C51.1308 45.6817 51.1078 45.7638 51.104 45.8576C51.1018 45.9097 51.1051 45.9654 51.0972 46.0171L51.072 46.1826L51.0519 46.4335L51.0369 46.6091C51.0086 46.7115 50.9815 46.8126 50.9815 46.92V47.1558L50.9464 47.4469C50.9312 47.573 50.9326 47.7862 51.0269 47.8884C51.1548 48.0273 51.2948 47.9508 51.3918 47.8304C51.4259 47.7878 51.46 47.7453 51.4942 47.7029C51.6306 47.5335 51.7566 47.3605 51.8464 47.1617C51.8932 47.0578 51.9399 46.9539 51.9867 46.85L52.1075 46.589L52.2431 46.2829L52.4039 45.9269L52.4543 45.8012L52.5546 45.5857L52.6744 45.3521C52.7075 45.2883 52.7388 45.2208 52.7723 45.1539C52.7764 45.1265 52.7852 45.0931 52.7967 45.0574C52.8087 45.0368 52.8211 45.0157 52.8337 44.9934C52.8687 44.9312 52.8989 44.8734 52.9219 44.8255C52.9439 44.7954 52.9698 44.755 52.9961 44.7086C53.02 44.6663 53.0397 44.6266 53.054 44.5938C53.0654 44.5743 53.0767 44.5549 53.0878 44.5353L53.1391 44.4456L53.2161 44.2363L53.306 44.0014C53.3343 43.881 53.4009 43.7717 53.4571 43.6617C53.5255 43.5277 53.5916 43.3925 53.6592 43.2585C53.6741 43.2288 53.6899 43.1995 53.7038 43.1693L53.8109 42.9388C53.8899 42.7812 53.9187 42.5959 53.9876 42.4334C54.0243 42.3463 54.0662 42.2612 54.1056 42.1752C54.1184 42.1468 54.1291 42.116 54.1445 42.089L54.2857 41.7857L54.3927 41.5338L54.5425 41.2219C54.6166 41.0154 54.6644 40.8073 54.7227 40.5965C54.7781 40.3968 54.8226 40.2211 54.8301 40.0152L54.8836 39.7933L55.0063 39.5025L55.0906 39.2424L55.1213 39.0513L55.1441 38.814C55.1932 38.6349 55.218 38.4787 55.2283 38.2938L55.2437 38.0259L55.2668 37.8196L55.2975 37.6053C55.3523 37.1898 55.4475 36.7725 55.5486 36.3648C55.5849 36.2188 55.6266 36.0743 55.6646 35.9289L55.9208 34.9507C56.0266 34.5498 56.1362 34.1577 56.1915 33.7466L56.2603 33.4124L56.273 33.1634C56.273 33.1634 56.3121 32.917 56.3146 32.902C56.3422 32.7279 56.3994 32.5681 56.4181 32.39C56.4181 32.0326 56.3837 31.7006 56.4566 31.3474C56.4985 31.1448 56.5335 30.9401 56.5806 30.7386L56.7479 30.0208L56.8367 29.539C56.8573 29.3361 56.8577 29.1404 56.8612 28.938L56.8669 28.632L56.8731 28.2767L56.9045 28.0439C56.9188 27.9701 56.9395 27.8985 56.9387 27.8226C56.9385 27.8123 56.9438 27.7014 56.9383 27.6998L56.9442 27.6028L56.9619 27.4265C56.9769 27.3472 57 27.2637 57 27.1826L56.9973 27.1178ZM6.82728 47.8552C6.80192 47.7673 6.77653 47.6795 6.75102 47.5916C6.72118 47.4879 6.68114 47.3867 6.64519 47.2849L6.57953 47.0072L6.53441 46.7046L6.49467 46.4354L6.43913 46.1662L6.39159 45.7307L6.29647 45.3269L6.28055 45.0816L6.18543 44.654C6.1583 44.3638 6.13204 44.0735 6.10596 43.7831L6.01884 43.3319L5.92361 42.7774L5.79671 42.0492L5.76815 41.9162C5.77019 41.8717 5.76076 41.7903 5.74117 41.6976C5.73016 41.6452 5.71752 41.5973 5.70506 41.5583L5.63805 41.2964C5.5953 41.1203 5.56512 40.9419 5.50554 40.77C5.47467 40.6809 5.41347 40.5801 5.40012 40.4889L5.37635 40.3227L5.31284 39.9902L5.27311 39.7685C5.27006 39.6847 5.26685 39.601 5.26383 39.5172C5.25715 39.3379 5.2593 39.1755 5.21553 39.0007C5.19018 38.8995 5.15331 38.7949 5.13841 38.6917L5.09868 38.4145L5.00356 37.8207L4.90032 37.1557L4.79694 36.8115C4.77479 36.7452 4.75521 36.6849 4.73955 36.635C4.69733 36.5181 4.66876 36.3881 4.63745 36.2741C4.5916 36.1069 4.53565 35.938 4.53565 35.763L4.46241 35.4635C4.3834 35.207 4.29654 34.9695 4.18448 34.7258C4.13475 34.5935 4.06543 34.4754 4.02774 34.3386C4.00571 34.2586 3.99484 34.1574 3.95756 34.0829L3.86244 33.725L3.75268 33.4693L3.6648 33.3159L3.60813 33.1461L3.57043 32.8982L3.52648 32.5229C3.52648 32.3939 3.54493 32.2733 3.50459 32.1503C3.46324 32.0245 3.42237 31.8942 3.43252 31.76C3.43252 31.76 3.4566 31.4419 3.45762 31.4289C3.4712 31.25 3.57719 31.0814 3.60171 30.9035L3.62665 30.722L3.77079 30.0344C3.84995 29.7836 3.92187 29.527 4.00552 29.2785L4.09713 29.0708L4.21357 28.8521L4.30288 28.7292L4.37234 28.6221L4.41932 28.5439L4.54893 28.4079L4.65624 28.3163L4.74377 28.265L4.85237 28.2229L5.0342 28.174L5.3082 28.1148L5.55991 28.0779L5.81177 28.0336L6.0339 27.9893C6.1941 27.9427 6.34722 27.8883 6.51279 27.8615C6.6659 27.8366 6.82019 27.8215 6.97168 27.7875C7.23523 27.7285 7.50509 27.637 7.74001 27.5022C7.84437 27.4421 7.93195 27.3671 8.02432 27.2911C8.14132 27.1948 8.22222 27.0905 8.26078 26.9826C8.31579 26.9001 8.34575 26.8143 8.34666 26.7275C8.35273 26.694 8.35594 26.6604 8.35349 26.6267C8.33824 26.4313 8.1766 26.2627 7.9178 26.1381C7.70873 25.9587 7.3442 25.8303 6.90055 25.779L6.456 25.6978L6.10804 25.624L5.75253 25.5352L5.36005 25.4613C5.23564 25.4613 5.09804 25.3717 4.9725 25.3518C4.89712 25.34 4.82131 25.3312 4.74559 25.321L4.52346 25.2616L4.21244 25.1952L3.8575 25.1473C3.66103 25.1074 3.42456 25.0665 3.16912 25.0303C2.66306 24.9582 2.22451 24.9233 2.02106 24.9336L1.84274 24.929L1.5642 24.9491C1.4346 24.9583 1.31208 25.005 1.19406 25.0568C1.14085 25.0799 1.09271 25.1134 1.04068 25.1389C0.95529 25.1807 0.869035 25.1957 0.791723 25.2547L0.69298 25.325L0.688188 25.3299C0.687207 25.3303 0.686339 25.3307 0.685471 25.3316C0.578426 25.4053 0.508434 25.5038 0.48987 25.5915L0.46708 25.6623L0.452176 25.8325C0.451157 25.8682 0.450856 25.9046 0.448252 25.9401L0.422745 26.0354C0.39739 26.1304 0.330944 26.2069 0.289477 26.2948C0.247029 26.3849 0.220466 26.482 0.19628 26.5784C0.172358 26.6741 0.153945 26.7707 0.14089 26.8684C0.138437 26.888 0.136249 26.9071 0.134061 26.9266C0.129872 26.9403 0.125382 26.9539 0.121307 26.9679C0.0682566 27.1505 0.0382222 27.3238 0.0305249 27.467L0.00618799 27.6582L0 28.1458L0.00622572 28.665L0.0313173 28.9025L0.0500322 29.0712V29.2338L0.0626346 29.3839L0.181678 29.8403L0.200393 30.0655C0.200393 30.174 0.207788 30.2835 0.228805 30.39C0.241407 30.455 0.269253 30.5306 0.269253 30.597L0.306947 30.8657L0.325662 31.2284C0.329737 31.7189 0.330341 32.209 0.326832 32.6993C0.325851 32.8504 0.337396 32.9988 0.350753 33.1481C0.421085 33.4143 0.488814 33.6803 0.551297 33.9485L0.58884 34.2112L0.627289 34.3118L0.701356 34.543L0.847793 34.828L0.979476 35.0471L1.10384 35.3467L1.19157 35.6824L1.221 35.9162L1.24288 36.1135L1.22824 36.2815C1.201 36.3899 1.18376 36.4854 1.19157 36.5956L1.20621 36.749L1.22824 36.9023L1.23552 37.0777L1.25016 37.231C1.26929 37.4325 1.32208 37.6214 1.37453 37.8154L1.44037 38.0564L1.48663 38.221L1.4924 38.2728C1.50123 38.3129 1.5127 38.3706 1.52447 38.4355C1.52606 38.4443 1.52753 38.4527 1.52911 38.4613C1.55477 38.5776 1.56002 38.6963 1.61061 38.8058C1.63963 38.8684 1.67993 38.928 1.704 38.9925C1.74648 39.106 1.80855 39.2125 1.84029 39.3299C1.87028 39.4407 1.86028 39.5578 1.90073 39.6667C1.92118 39.7216 1.94846 39.7764 1.96586 39.8318L2.12444 40.3304L2.23549 40.8134C2.30367 41.0387 2.39279 41.2192 2.48923 41.4311L2.64786 41.7794L2.82157 42.1257C2.82663 42.1424 2.83708 42.1696 2.85097 42.2014C2.86432 42.2317 2.87662 42.2567 2.88538 42.2721C2.95843 42.454 3.01091 42.6311 3.13924 42.7877C3.3048 42.9898 3.46807 43.1946 3.57594 43.4347C3.67465 43.6545 3.79505 43.8768 3.94073 44.068L4.21825 44.4322L4.37699 44.7013C4.47486 44.8967 4.63216 45.0929 4.71004 45.295L4.86052 45.7208C4.90138 45.8692 4.98186 46.0808 5.08857 46.3099C5.12728 46.3933 5.16644 46.4723 5.20497 46.5455C5.28805 46.706 5.40174 46.9026 5.5344 47.1112C5.62703 47.2567 5.71823 47.3913 5.80249 47.5083L5.927 47.7087L6.0028 47.8146L6.15464 48.0469L6.25568 48.2084L6.36688 48.3599C6.39687 48.4155 6.41763 48.47 6.46189 48.5164C6.49637 48.5524 6.51871 48.588 6.56365 48.6125C6.57655 48.6194 6.58787 48.6266 6.59889 48.6324C6.60817 48.6406 6.61817 48.6475 6.62975 48.6524C6.68401 48.675 6.74676 48.6535 6.79072 48.6042C6.81928 48.5843 6.84407 48.5547 6.85958 48.5175C6.86033 48.5161 6.86045 48.5148 6.86105 48.5132C6.87784 48.491 6.89078 48.4663 6.8944 48.4329C6.89904 48.3886 6.91919 48.3459 6.91568 48.3009C6.91225 48.2551 6.89614 48.2084 6.88671 48.1635C6.86467 48.0613 6.84426 47.9586 6.82728 47.8552ZM24.5502 19.5069C24.5519 19.557 24.5536 19.6071 24.5557 19.6573C24.5599 19.771 24.5802 19.8831 24.5993 19.9951C24.5999 19.9978 24.5999 20.0004 24.6004 20.003C24.6069 20.0497 24.6066 20.0937 24.6004 20.1409C24.5968 20.167 24.5933 20.1933 24.5915 20.2196C24.5907 20.2315 24.5901 20.2441 24.5904 20.2558C24.5904 20.2612 24.5911 20.2663 24.5912 20.2716C24.592 20.2816 24.592 20.2914 24.5931 20.3022C24.6092 20.4205 24.6313 20.5377 24.6428 20.6565C24.6485 20.7135 24.6679 20.7678 24.6769 20.8241C24.6905 20.9103 24.6927 20.9946 24.6939 21.0814C24.6946 21.1392 24.6957 21.1969 24.6966 21.2548C24.6974 21.3109 24.6979 21.3669 24.6966 21.423C24.6957 21.4568 24.6947 21.4904 24.6937 21.5239C24.6915 21.596 24.6898 21.6681 24.6878 21.74C24.6878 21.7487 24.687 21.7571 24.687 21.7656C24.6808 22.0125 24.6448 22.2596 24.6688 22.5178C24.6794 22.6314 24.6876 22.7449 24.6947 22.8586C24.6978 22.9176 24.691 22.9763 24.6904 23.0352V23.0405C24.6897 23.0869 24.6952 23.1325 24.6995 23.1785C24.7085 23.273 24.7377 23.3639 24.7589 23.4562L24.792 23.5658L24.7989 23.5935L24.8127 23.6756L24.8212 23.7428L24.8225 23.817L24.8383 23.9179L24.8832 24.0752L24.9395 24.2213L24.9958 24.3627L25.0498 24.4907C25.0886 24.5832 25.1178 24.6767 25.146 24.7727L25.1554 24.8052L25.1937 24.9489C25.2089 24.9976 25.2286 25.0438 25.235 25.0947C25.2383 25.1217 25.2418 25.149 25.2454 25.176C25.2573 25.2483 25.2672 25.3184 25.2725 25.3917C25.2773 25.4705 25.2781 25.5545 25.3023 25.6305C25.3111 25.658 25.3197 25.6858 25.3281 25.7136C25.3305 25.7215 25.3329 25.7297 25.3356 25.7375L25.3782 25.8498C25.4103 25.9339 25.4275 26.0229 25.4511 26.1098C25.4627 26.1521 25.4773 26.1936 25.4929 26.2348C25.5392 26.3894 25.6316 26.4952 25.7384 26.4952C25.8076 26.4952 25.8708 26.4506 25.9193 26.3769C25.9968 26.28 26.0625 26.1124 26.096 25.9124C26.1246 25.8008 26.1476 25.6761 26.162 25.5426C26.1648 25.5158 26.1671 25.4895 26.1692 25.4633L26.1849 25.3796C26.1998 25.33 26.2157 25.2812 26.2334 25.2323L26.2537 25.1778C26.2706 25.1455 26.2836 25.1131 26.2962 25.0788C26.3017 25.066 26.3069 25.0531 26.3128 25.0405C26.3219 25.0214 26.3382 25.0097 26.3488 24.9917L26.3813 24.9372L26.4237 24.8504C26.435 24.8282 26.4468 24.8062 26.4577 24.7839C26.4755 24.7482 26.4813 24.7102 26.491 24.6718C26.5049 24.6169 26.5029 24.5613 26.5046 24.5047L26.5107 24.4017L26.5209 24.2623C26.529 24.2029 26.5384 24.1438 26.5452 24.0842C26.5452 24.0822 26.5615 23.9428 26.5615 23.9428C26.5728 23.8588 26.5837 23.7745 26.5938 23.6903C26.6009 23.6602 26.6075 23.6303 26.6144 23.6003C26.6272 23.5451 26.6252 23.4861 26.6283 23.4296L26.6505 23.2982C26.667 23.226 26.6795 23.1554 26.689 23.082C26.6961 22.9921 26.7033 22.9057 26.7203 22.817C26.721 22.8134 26.7213 22.8096 26.7219 22.8059L26.7361 22.7491C26.7437 22.7182 26.7507 22.6868 26.7571 22.6556C26.769 22.5973 26.7694 22.5378 26.7752 22.4787C26.7778 22.4472 26.7819 22.4157 26.7852 22.3845C26.7912 22.3283 26.7899 22.2743 26.7883 22.2179C26.7849 22.153 26.7812 22.0896 26.7717 22.025C26.7702 22.0129 26.7668 22.0003 26.766 21.9882C26.7648 21.9689 26.7723 21.9511 26.7764 21.9326C26.7851 21.8926 26.7876 21.8537 26.7905 21.8128C26.7941 21.7602 26.7812 21.7051 26.7765 21.6526C26.771 21.5904 26.7602 21.5261 26.7635 21.4638H26.7639C26.7676 21.3923 26.7745 21.3209 26.7694 21.2494C26.7694 21.2469 26.7694 21.2443 26.7687 21.2416V21.1953L26.7655 20.9792L26.7782 20.7093L26.7877 20.5569L26.7782 20.4585L26.7717 20.3189L26.7751 20.255L26.7877 20.1375C26.7997 20.0272 26.7756 19.9135 26.7623 19.804C26.7631 19.7935 26.7633 19.7828 26.7639 19.7719C26.7683 19.6822 26.7782 19.5908 26.7722 19.501C26.7677 19.4359 26.7636 19.3707 26.7591 19.3056C26.7584 19.2957 26.7583 19.2856 26.7579 19.2757C26.7562 19.2382 26.7542 19.2006 26.7538 19.1633C26.7531 19.1104 26.7365 19.0613 26.7277 19.0097C26.7205 18.9666 26.7096 18.9206 26.7083 18.8768L26.7019 18.6578L26.6956 18.4831C26.6956 18.4732 26.6948 18.4634 26.6948 18.4535C26.6927 18.3747 26.6983 18.2913 26.6819 18.2139C26.6745 18.1784 26.6681 18.1423 26.6593 18.1073C26.6468 18.0582 26.6227 18.0099 26.6019 17.9626C26.5852 17.9093 26.5653 17.8556 26.5388 17.8018C26.4738 17.6324 26.377 17.493 26.2694 17.4001L26.2103 17.339L26.1122 17.2448L26.0396 17.185L25.9561 17.1034L25.8744 17.031L25.7926 16.9386C25.7684 16.9111 25.7471 16.8743 25.7268 16.8429C25.7057 16.81 25.6888 16.7759 25.673 16.7401C25.6594 16.7092 25.642 16.6812 25.6252 16.6518C25.6118 16.6284 25.5984 16.605 25.5849 16.5815C25.5578 16.5343 25.5305 16.4873 25.5028 16.4404C25.4824 16.4053 25.4631 16.3693 25.4402 16.3357C25.4026 16.2809 25.3645 16.2271 25.3245 16.1738L25.2967 16.1485C25.2646 16.1104 25.2315 16.0811 25.2033 16.0644C25.2003 16.062 25.1982 16.0595 25.1952 16.0571C25.1653 16.0339 25.1357 16.017 25.1109 16.0073C25.1076 16.0053 25.1046 16.0033 25.1012 16.0016C25.0632 15.9823 25.0248 15.9707 24.9906 15.9666C24.9719 15.962 24.9524 15.9588 24.9316 15.9588C24.872 15.9588 24.8195 15.9784 24.784 16.0088C24.7593 16.0262 24.7363 16.0519 24.7161 16.083C24.7 16.0999 24.6834 16.1271 24.6698 16.1602C24.6627 16.1731 24.6561 16.1877 24.6503 16.2034C24.6359 16.242 24.6296 16.2786 24.6313 16.3045C24.6278 16.3261 24.6252 16.3479 24.6249 16.3707C24.6241 16.4117 24.6225 16.4526 24.6211 16.4935C24.6211 16.5035 24.6204 16.5132 24.6202 16.5231C24.6191 16.5792 24.6178 16.6355 24.6165 16.6917C24.6155 16.7431 24.6067 16.7929 24.5992 16.8436C24.5835 16.9477 24.5682 17.0543 24.5685 17.1595V17.1649C24.5685 17.1955 24.5708 17.2259 24.5759 17.2562C24.5925 17.3568 24.6141 17.4544 24.6128 17.5571C24.6104 17.6757 24.5811 17.7894 24.565 17.9062C24.5639 17.9132 24.5638 17.9203 24.5629 17.9272C24.5574 17.9569 24.5522 18.0038 24.5491 18.0573C24.5444 18.1392 24.5463 18.2068 24.553 18.2197L24.5456 18.4803C24.5449 18.6066 24.5442 18.7328 24.5435 18.8591C24.5427 18.9411 24.5329 19.0243 24.5321 19.1068C24.5321 19.1347 24.5321 19.1626 24.5349 19.1903C24.5444 19.2961 24.5476 19.401 24.5502 19.5069ZM24.8578 2.79196C24.8831 2.80182 24.9093 2.80966 24.9358 2.81531C24.9519 2.81858 24.9686 2.81892 24.9847 2.82209C24.9962 2.82442 25.0067 2.82992 25.0182 2.83147C25.0427 2.83516 25.0677 2.82789 25.092 2.82789C25.1201 2.828 25.1483 2.8286 25.1764 2.82962C25.318 2.83425 25.4586 2.85158 25.5996 2.86566C25.6814 2.87621 25.7637 2.88156 25.8448 2.89726C25.8668 2.90137 25.8883 2.90849 25.9102 2.91372C25.9445 2.92212 25.9792 2.92615 26.0135 2.93572C26.0347 2.94152 26.0559 2.94732 26.0772 2.95323L26.1924 2.98088L26.3078 3.00385L26.4553 3.02223L26.6215 3.03598L26.6911 3.03786L26.7589 3.04668C26.7978 3.05651 26.8387 3.06547 26.8835 3.07218C26.9179 3.07726 26.9508 3.08042 26.9828 3.08291L26.9944 3.08562L27.08 3.0976L27.1439 3.11929L27.186 3.13496L27.2354 3.16626L27.2836 3.19982L27.3173 3.23959C27.3173 3.23959 27.3555 3.27771 27.357 3.2791C27.3913 3.31326 27.4076 3.34498 27.4233 3.3898L27.4379 3.45597L27.4536 3.52689L27.4583 3.58972C27.4595 3.61262 27.4654 3.64659 27.4755 3.68455C27.4819 3.71943 27.4889 3.75431 27.4972 3.78896C27.505 3.82154 27.5118 3.85457 27.5245 3.88572C27.5346 3.91088 27.553 3.93604 27.5549 3.96383L27.5585 4.0276L27.5514 4.0566C27.5413 4.09679 27.5309 4.13667 27.5179 4.17588C27.5163 4.18048 27.5086 4.22684 27.5039 4.26503C27.4982 4.28763 27.4959 4.31915 27.4988 4.35403C27.502 4.38902 27.5094 4.41987 27.5188 4.44115C27.5249 4.46676 27.5323 4.48861 27.5395 4.50311C27.5463 4.53565 27.5569 4.56593 27.5669 4.59806C27.6006 4.70675 27.5968 4.82476 27.62 4.93602C27.6429 5.04539 27.6761 5.14415 27.7147 5.22678C27.7237 5.27906 27.7618 5.34531 27.8212 5.40441C27.8688 5.45171 27.921 5.48516 27.9667 5.5012C27.9689 5.50222 27.9712 5.50263 27.9732 5.50357C28.0229 5.53566 28.0799 5.55404 28.1404 5.55404C28.289 5.55404 28.4383 5.45054 28.5182 5.3319C28.5303 5.32087 28.539 5.31292 28.539 5.31292L28.59 5.24866L28.6356 5.18701L28.6785 5.10671C28.7001 5.07443 28.7207 5.0495 28.7256 5.01089C28.7285 4.98826 28.7318 4.96592 28.7347 4.94328L28.7482 4.80679L28.7617 4.69956C28.7617 4.69956 28.7803 4.59015 28.7805 4.58969C28.8011 4.46887 28.8054 4.34477 28.8083 4.22206C28.8096 4.16756 28.8099 4.11279 28.8099 4.05807C28.8099 3.95287 28.8086 3.84723 28.8033 3.74218C28.7991 3.65951 28.7844 3.57702 28.7805 3.49424C28.776 3.40147 28.7769 3.3252 28.8019 3.23443L28.8395 3.17541L28.8797 3.11929L28.9227 3.07364L29.0004 3.02822L29.0997 2.99869L29.2285 2.97455C29.3553 2.96788 29.4764 2.95602 29.6015 2.93444L29.776 2.9077C29.8589 2.89448 29.9421 2.88337 30.0255 2.87278L30.1585 2.84774C30.2272 2.84774 30.3024 2.84295 30.3811 2.83312C30.5145 2.81621 30.6353 2.78691 30.7281 2.75207L30.7742 2.74254L30.9031 2.71181C30.9473 2.70514 30.9915 2.70296 31.0343 2.68868C31.0604 2.67998 31.0866 2.67429 31.1136 2.66898L31.1384 2.66416L31.2394 2.64454L31.3088 2.62812C31.3414 2.62691 31.385 2.61851 31.4323 2.60341C31.4671 2.59226 31.5012 2.5784 31.5332 2.56059C31.5588 2.54627 31.5711 2.53076 31.5881 2.50823C31.5966 2.49701 31.607 2.48763 31.6147 2.47592C31.6302 2.45249 31.6399 2.42541 31.6399 2.39701C31.6399 2.36055 31.6235 2.32669 31.5969 2.29645C31.5898 2.28583 31.5819 2.27472 31.5723 2.26345C31.5555 2.24346 31.5382 2.22711 31.5236 2.21671C31.4824 2.17532 31.4059 2.13969 31.3073 2.11393C31.2938 2.11046 31.2821 2.1038 31.2682 2.10131C31.2558 2.09931 31.2436 2.09698 31.2312 2.0948C31.2046 2.09031 31.178 2.08572 31.1513 2.08105C31.1453 2.08007 31.139 2.07886 31.1329 2.07788L30.9684 2.06896L30.8419 2.04263C30.7988 2.03367 30.7563 2.0206 30.7121 2.0177C30.6702 2.01506 30.6283 2.02161 30.5864 2.0183C30.5286 2.01352 30.471 2.00903 30.413 2.00741C30.3788 2.00647 30.3445 2.00613 30.3103 2.00659C30.2942 2.00689 30.278 2.00723 30.2619 2.00775C30.2317 2.00873 30.1998 2.00395 30.1694 2.00354C30.1389 2.00297 30.1084 2.00241 30.0777 2.0018C30.0708 2.00165 30.0639 2.00165 30.0568 2.00154L29.8481 1.97231L29.6335 1.93988L29.4688 1.90768L29.3512 1.8754L29.2306 1.83446L29.1336 1.79898L29.0424 1.74915L28.963 1.67872L28.9045 1.60836L28.8572 1.50562L28.8249 1.41168L28.8073 1.34189C28.8023 1.28555 28.7933 1.22668 28.7802 1.16634C28.7608 1.07621 28.7341 0.993425 28.7032 0.919717C28.6941 0.883672 28.6825 0.841451 28.6689 0.796292C28.6584 0.760963 28.6473 0.725973 28.6355 0.691096C28.6189 0.641455 28.608 0.598179 28.5994 0.546768L28.5884 0.480931L28.5775 0.413325L28.5481 0.345755L28.4931 0.234157L28.4694 0.197472C28.4506 0.168848 28.4144 0.15269 28.3834 0.137172C28.3622 0.122672 28.3419 0.107644 28.3215 0.0922768C28.2851 0.061317 28.2315 0.0365717 28.1674 0.0223724C28.1343 0.00870038 28.0868 0 28.0333 0C27.9664 0 27.9087 0.0134084 27.8778 0.0335586C27.8127 0.0538218 27.762 0.0855726 27.7347 0.1235L27.6944 0.159055C27.6627 0.194384 27.6272 0.228093 27.6124 0.27442C27.601 0.296265 27.5877 0.404963 27.5807 0.536938C27.58 0.546504 27.58 0.555016 27.5798 0.564319L27.5699 0.638405L27.5397 0.776481L27.5386 0.786499C27.5246 0.83309 27.5127 0.885668 27.5041 0.942541C27.4955 0.998811 27.4916 1.05192 27.4907 1.10043L27.4791 1.1712L27.4575 1.30476L27.4272 1.42784L27.3927 1.53579C27.3823 1.56852 27.3634 1.59774 27.3478 1.62799C27.3362 1.65028 27.3295 1.67601 27.3172 1.69744C27.2935 1.7351 27.2746 1.76565 27.2412 1.79544C27.2065 1.82625 27.1692 1.87559 27.1291 1.89819L27.0405 1.94787C27.0405 1.94787 26.9515 1.97533 26.9498 1.97574C26.8984 1.99167 26.8441 1.98809 26.7911 1.99035C26.7413 1.99273 26.6919 2.00387 26.6419 2.00387L26.0921 2.00949L25.9158 2.05005L25.8007 2.06353L25.638 2.07717L25.4075 2.13118L25.2177 2.1853L25.0346 2.21242L24.9521 2.23988C24.9324 2.24477 24.911 2.25118 24.8893 2.25916C24.861 2.26956 24.8332 2.28161 24.8069 2.29634C24.7859 2.3082 24.7688 2.32553 24.7499 2.34033C24.732 2.35453 24.7147 2.36824 24.6991 2.38503C24.6703 2.41618 24.6482 2.45392 24.6416 2.49622C24.6332 2.51614 24.629 2.53987 24.6312 2.56552C24.6342 2.60028 24.6484 2.63026 24.668 2.64936C24.701 2.70348 24.769 2.75757 24.8578 2.79196Z" fill="#AD0617"/>
</svg>